<?xml version="1.0" encoding="UTF-8"?><svg xmlns="http://www.w3.org/2000/svg" xmlns:xlink="http://www.w3.org/1999/xlink" fill-opacity="1" color-rendering="auto" color-interpolation="auto" stroke="black" text-rendering="auto" stroke-linecap="square" width="586" stroke-miterlimit="10" stroke-opacity="1" shape-rendering="auto" fill="black" stroke-dasharray="none" font-weight="normal" stroke-width="1" height="257" font-family="'Dialog'" font-style="normal" stroke-linejoin="miter" font-size="12" stroke-dashoffset="0" image-rendering="auto">
  <!--Generated by ySVG-->
  <defs id="genericDefs"/>
  <g>
    <defs id="defs1">
      <clipPath clipPathUnits="userSpaceOnUse" id="clipPath1">
        <path d="M0 0 L586 0 L586 257 L0 257 L0 0 Z"/>
      </clipPath>
      <clipPath clipPathUnits="userSpaceOnUse" id="clipPath2">
        <path d="M-7 53 L579 53 L579 310 L-7 310 L-7 53 Z"/>
      </clipPath>
    </defs>
    <g fill="white" transform="translate(7,-53)" stroke="white">
      <rect x="-7" width="586" height="257" y="53" clip-path="url(#clipPath2)" stroke="none"/>
    </g>
    <g stroke-dasharray="6,2" stroke-miterlimit="1.45" transform="matrix(1,0,0,1,7,-53)" stroke-linecap="butt">
      <path fill="none" d="M166.5037 145.4224 L271.7657 174.875" clip-path="url(#clipPath2)"/>
      <path fill="none" d="M435.1787 141.3553 L359.3211 174.875" clip-path="url(#clipPath2)"/>
      <path fill="none" d="M237.236 249.875 L267.5 249.875" clip-path="url(#clipPath2)"/>
      <path fill="none" d="M407.2749 249.875 L383.25 249.875" clip-path="url(#clipPath2)"/>
      <path fill="none" stroke-dasharray="none" d="M171.3311 121.0123 L216.1183 109.672" clip-path="url(#clipPath2)"/>
      <path fill="white" stroke-dasharray="none" d="M230.6594 105.9901 L213.6761 104.101 L216.6216 115.7339 Z" clip-path="url(#clipPath2)" stroke="none"/>
      <path fill="none" stroke-dasharray="none" d="M230.6594 105.9901 L213.6761 104.101 L216.6216 115.7339 Z" clip-path="url(#clipPath2)"/>
      <text x="174.5963" y="98.9922" clip-path="url(#clipPath2)" font-family="sans-serif" stroke-dasharray="none" stroke="none" xml:space="preserve">inherits</text>
      <path fill="none" stroke-dasharray="none" d="M440.6964 113.6207 L338.694 101.0857" clip-path="url(#clipPath2)"/>
      <path fill="white" stroke-dasharray="none" d="M323.806 99.2562 L338.9547 107.1629 L340.4184 95.2525 Z" clip-path="url(#clipPath2)" stroke="none"/>
      <path fill="none" stroke-dasharray="none" d="M323.806 99.2562 L338.9547 107.1629 L340.4184 95.2525 Z" clip-path="url(#clipPath2)"/>
      <path fill="none" stroke-dasharray="none" d="M123 213.625 L123 167.0344" clip-path="url(#clipPath2)"/>
      <path stroke-dasharray="none" d="M123 159.0344 L118 171.0344 L123 168.0344 L128 171.0344 Z" clip-path="url(#clipPath2)" stroke="none"/>
      <text x="46.7061" y="191.3619" clip-path="url(#clipPath2)" font-family="sans-serif" stroke-dasharray="none" stroke="none" xml:space="preserve">instantiates</text>
      <path fill="none" stroke-dasharray="none" d="M485.4875 166.875 L485.4875 152.9119" clip-path="url(#clipPath2)"/>
      <path stroke-dasharray="none" d="M485.4875 144.9119 L480.4875 156.9119 L485.4875 153.9119 L490.4875 156.9119 Z" clip-path="url(#clipPath2)" stroke="none"/>
    </g>
    <g fill="rgb(255,153,204)" transform="matrix(1,0,0,1,7,-53)" stroke="rgb(255,153,204)">
      <rect x="267.5" width="115.75" height="30" y="174.875" clip-path="url(#clipPath2)" stroke="none"/>
    </g>
    <g font-size="18" stroke-miterlimit="1.45" font-family="sans-serif" transform="matrix(1,0,0,1,7,-53)" stroke-linecap="butt">
      <text x="285.9648" xml:space="preserve" y="196.1064" clip-path="url(#clipPath2)" stroke="none">manifest</text>
      <rect fill="none" x="267.5" width="115.75" height="30" y="174.875" clip-path="url(#clipPath2)"/>
      <text x="292.1479" xml:space="preserve" y="226.1064" clip-path="url(#clipPath2)" stroke="none">catalog</text>
      <rect fill="none" x="267.5" width="115.75" height="30" y="204.875" clip-path="url(#clipPath2)"/>
    </g>
    <g fill="silver" transform="matrix(1,0,0,1,7,-53)" stroke="silver">
      <rect x="267.5" width="115.75" height="30" y="234.875" clip-path="url(#clipPath2)" stroke="none"/>
    </g>
    <g font-size="18" stroke-miterlimit="1.45" font-family="sans-serif" transform="matrix(1,0,0,1,7,-53)" stroke-linecap="butt">
      <text x="307.9507" xml:space="preserve" y="256.1064" clip-path="url(#clipPath2)" stroke="none">RAL</text>
      <rect fill="none" x="267.5" width="115.75" height="30" y="234.875" clip-path="url(#clipPath2)"/>
      <text x="292.8379" xml:space="preserve" y="286.1064" clip-path="url(#clipPath2)" stroke="none">system</text>
      <rect fill="none" x="267.5" width="115.75" height="30" y="264.875" clip-path="url(#clipPath2)"/>
    </g>
    <g fill="rgb(255,204,153)" transform="matrix(1,0,0,1,7,-53)" stroke="rgb(255,204,153)">
      <path d="M238.2 68 L330 68 L319.8 119.5 L228 119.5 Z" clip-path="url(#clipPath2)" fill-rule="evenodd" stroke="none"/>
    </g>
    <g font-size="18" stroke-miterlimit="1.45" font-family="sans-serif" transform="matrix(1,0,0,1,7,-53)" stroke-linecap="butt">
      <text x="274.1309" xml:space="preserve" y="90.708" clip-path="url(#clipPath2)" stroke="none">Type </text>
      <path fill="none" d="M238.2 68 L330 68 L319.8 119.5 L228 119.5 Z" fill-rule="evenodd" clip-path="url(#clipPath2)"/>
    </g>
    <g fill="rgb(255,153,204)" transform="matrix(1,0,0,1,7,-53)" stroke="rgb(255,153,204)">
      <path d="M82.2 107.5 L174 107.5 L163.8 159 L72 159 Z" clip-path="url(#clipPath2)" fill-rule="evenodd" stroke="none"/>
    </g>
    <g font-size="18" stroke-miterlimit="1.45" font-family="sans-serif" transform="matrix(1,0,0,1,7,-53)" stroke-linecap="butt">
      <text x="119.8887" xml:space="preserve" y="130.208" clip-path="url(#clipPath2)" stroke="none">Cron </text>
      <path fill="none" d="M82.2 107.5 L174 107.5 L163.8 159 L72 159 Z" fill-rule="evenodd" clip-path="url(#clipPath2)"/>
    </g>
    <g fill="silver" transform="matrix(1,0,0,1,7,-53)" stroke="silver">
      <rect x="8.7625" width="228.475" height="72.5" y="213.625" clip-path="url(#clipPath2)" stroke="none"/>
    </g>
    <g font-size="18" stroke-miterlimit="1.45" font-family="sans-serif" transform="matrix(1,0,0,1,7,-53)" stroke-linecap="butt">
      <text x="15.813" xml:space="preserve" y="235.1533" clip-path="url(#clipPath2)" stroke="none">Puppet::Type</text>
      <text x="15.813" xml:space="preserve" y="256.1064" clip-path="url(#clipPath2)" stroke="none">  ::Cron.new(</text>
      <text x="15.813" xml:space="preserve" y="277.0596" clip-path="url(#clipPath2)" stroke="none">    :name =&gt; 'logclean')</text>
      <rect fill="none" x="8.7625" width="228.475" height="72.5" y="213.625" clip-path="url(#clipPath2)"/>
    </g>
    <g fill="rgb(255,153,204)" transform="matrix(1,0,0,1,7,-53)" stroke="rgb(255,153,204)">
      <path d="M444.6875 93.375 L536.4875 93.375 L526.2875 144.875 L434.4875 144.875 Z" clip-path="url(#clipPath2)" fill-rule="evenodd" stroke="none"/>
    </g>
    <g font-size="18" stroke-miterlimit="1.45" font-family="sans-serif" transform="matrix(1,0,0,1,7,-53)" stroke-linecap="butt">
      <text x="499.0578" xml:space="preserve" y="116.083" clip-path="url(#clipPath2)" stroke="none">File</text>
      <path fill="none" d="M444.6875 93.375 L536.4875 93.375 L526.2875 144.875 L434.4875 144.875 Z" fill-rule="evenodd" clip-path="url(#clipPath2)"/>
    </g>
    <g fill="silver" transform="matrix(1,0,0,1,7,-53)" stroke="silver">
      <rect x="407.25" width="156.475" height="121.5" y="166.875" clip-path="url(#clipPath2)" stroke="none"/>
    </g>
    <g font-size="18" stroke-miterlimit="1.45" font-family="sans-serif" transform="matrix(1,0,0,1,7,-53)" stroke-linecap="butt">
      <text x="416.2692" xml:space="preserve" y="191.9502" clip-path="url(#clipPath2)" stroke="none">Puppet</text>
      <text x="416.2692" xml:space="preserve" y="212.9033" clip-path="url(#clipPath2)" stroke="none">::Type</text>
      <text x="416.2692" xml:space="preserve" y="233.8564" clip-path="url(#clipPath2)" stroke="none">::File.new(</text>
      <text x="416.2692" xml:space="preserve" y="254.8096" clip-path="url(#clipPath2)" stroke="none">    :name =&gt;</text>
      <text x="416.2692" xml:space="preserve" y="275.7627" clip-path="url(#clipPath2)" stroke="none">      '/etc/motd')</text>
      <rect fill="none" x="407.25" width="156.475" height="121.5" y="166.875" clip-path="url(#clipPath2)"/>
    </g>
  </g>
</svg>
