<?xml version="1.0" encoding="UTF-8"?><svg xmlns="http://www.w3.org/2000/svg" xmlns:xlink="http://www.w3.org/1999/xlink" fill-opacity="1" color-rendering="auto" color-interpolation="auto" stroke="black" text-rendering="auto" stroke-linecap="square" width="416" stroke-miterlimit="10" stroke-opacity="1" shape-rendering="auto" fill="black" stroke-dasharray="none" font-weight="normal" stroke-width="1" height="291" font-family="'Dialog'" font-style="normal" stroke-linejoin="miter" font-size="12" stroke-dashoffset="0" image-rendering="auto">
  <!--Generated by ySVG-->
  <defs id="genericDefs"/>
  <g>
    <defs id="defs1">
      <clipPath clipPathUnits="userSpaceOnUse" id="clipPath1">
        <path d="M0 0 L416 0 L416 291 L0 291 L0 0 Z"/>
      </clipPath>
      <clipPath clipPathUnits="userSpaceOnUse" id="clipPath2">
        <path d="M91 112 L507 112 L507 403 L91 403 L91 112 Z"/>
      </clipPath>
    </defs>
    <g fill="white" transform="translate(-91,-112)" stroke="white">
      <rect x="91" width="416" height="291" y="112" clip-path="url(#clipPath2)" stroke="none"/>
    </g>
    <g stroke-linecap="butt" transform="matrix(1,0,0,1,-91,-112)" stroke-miterlimit="1.45">
      <path fill="none" d="M204.4681 159.0312 L196.3396 167 L190.5107 175 L187.0134 183 L185.8476 191 L187.0134 199 L190.5107 207 L196.3396 215 L198.7554 217.3683" clip-path="url(#clipPath2)"/>
      <path d="M204.4681 222.9688 L199.3993 210.9977 L198.0413 216.6683 L192.3988 218.1386 Z" clip-path="url(#clipPath2)" stroke="none"/>
      <text x="108.8566" xml:space="preserve" y="220.1543" font-family="sans-serif" clip-path="url(#clipPath2)" stroke="none">should_value</text>
      <path fill="none" d="M426.25 287 L433.3301 279 L438.3873 271 L441.4217 263 L442.4331 255 L441.4217 247 L438.3873 239 L433.3301 231 L431.5519 228.9908" clip-path="url(#clipPath2)"/>
      <path d="M426.25 223 L430.4587 235.2999 L432.2147 229.7396 L437.9471 228.6725 Z" clip-path="url(#clipPath2)" stroke="none"/>
      <text x="440.977" xml:space="preserve" y="280.6931" font-family="sans-serif" clip-path="url(#clipPath2)" stroke="none">is_value</text>
      <path fill="none" d="M372.75 319 L358.8906 331.127 L345.0312 339.7891 L331.1719 344.9863 L317.3125 346.7188 L303.4531 344.9863 L289.5938 339.7891 L275.7344 331.127 L267.8956 324.268" clip-path="url(#clipPath2)"/>
      <path d="M261.875 319 L267.6134 330.6649 L268.6482 324.9265 L274.1984 323.1392 Z" clip-path="url(#clipPath2)" stroke="none"/>
      <path fill="none" d="M204.4957 223.0314 L200.1197 255.1067 L197.7255 283.7325 L197.3174 308.8774 L198.8954 330.5415 L202.4596 348.7246 L208.0099 363.4268 L215.5464 374.6482 L225.0689 382.3886 L236.5776 386.6482 L250.0724 387.4268 L265.5534 384.7246 L283.0204 378.5415 L302.4736 368.8774 L323.913 355.7325 L347.3384 339.1067 L366.4763 323.964" clip-path="url(#clipPath2)"/>
      <path d="M372.75 319 L360.237 322.525 L365.6921 324.5845 L366.442 330.367 Z" clip-path="url(#clipPath2)" stroke="none"/>
      <text x="333.9364" xml:space="preserve" y="366.5469" font-family="sans-serif" clip-path="url(#clipPath2)" stroke="none">sync</text>
    </g>
    <g fill="rgb(255,204,153)" transform="matrix(1,0,0,1,-91,-112)" stroke="rgb(255,204,153)">
      <rect x="204.5" width="221.75" height="64" y="127" clip-path="url(#clipPath2)" stroke="none"/>
    </g>
    <g font-size="18" stroke-miterlimit="1.45" font-family="sans-serif" transform="matrix(1,0,0,1,-91,-112)" stroke-linecap="butt">
      <text x="282.1479" xml:space="preserve" y="165.2314" clip-path="url(#clipPath2)" stroke="none">catalog</text>
      <rect fill="none" x="204.5" width="221.75" height="64" y="127" clip-path="url(#clipPath2)"/>
    </g>
    <g fill="silver" transform="matrix(1,0,0,1,-91,-112)" stroke="silver">
      <rect x="204.5" width="221.75" height="64" y="191" clip-path="url(#clipPath2)" stroke="none"/>
    </g>
    <g font-size="18" stroke-miterlimit="1.45" font-family="sans-serif" transform="matrix(1,0,0,1,-91,-112)" stroke-linecap="butt">
      <text x="297.9507" xml:space="preserve" y="229.2314" clip-path="url(#clipPath2)" stroke="none">RAL</text>
      <rect fill="none" x="204.5" width="221.75" height="64" y="191" clip-path="url(#clipPath2)"/>
      <text x="229.3379" xml:space="preserve" y="282.7549" clip-path="url(#clipPath2)" stroke="none">system</text>
      <text x="228.3491" xml:space="preserve" y="303.708" clip-path="url(#clipPath2)" stroke="none">entities</text>
      <rect fill="none" x="204.5" width="114.75" height="64" y="255" clip-path="url(#clipPath2)"/>
    </g>
    <g fill="yellow" transform="matrix(1,0,0,1,-91,-112)" stroke="yellow">
      <rect x="319.25" width="107" height="64" y="255" clip-path="url(#clipPath2)" stroke="none"/>
    </g>
    <g font-size="18" stroke-miterlimit="1.45" font-family="sans-serif" transform="matrix(1,0,0,1,-91,-112)" stroke-linecap="butt">
      <text x="335.0537" xml:space="preserve" y="293.2314" clip-path="url(#clipPath2)" stroke="none">provider</text>
      <rect fill="none" x="319.25" width="107" height="64" y="255" clip-path="url(#clipPath2)"/>
    </g>
  </g>
</svg>
