<?xml version="1.0" encoding="UTF-8"?><svg xmlns="http://www.w3.org/2000/svg" xmlns:xlink="http://www.w3.org/1999/xlink" fill-opacity="1" color-rendering="auto" color-interpolation="auto" stroke="black" text-rendering="auto" stroke-linecap="square" width="540" stroke-miterlimit="10" stroke-opacity="1" shape-rendering="auto" fill="black" stroke-dasharray="none" font-weight="normal" stroke-width="1" height="378" font-family="'Dialog'" font-style="normal" stroke-linejoin="miter" font-size="12" stroke-dashoffset="0" image-rendering="auto">
  <!--Generated by ySVG-->
  <defs id="genericDefs"/>
  <g>
    <defs id="defs1">
      <clipPath clipPathUnits="userSpaceOnUse" id="clipPath1">
        <path d="M0 0 L540 0 L540 378 L0 378 L0 0 Z"/>
      </clipPath>
      <clipPath clipPathUnits="userSpaceOnUse" id="clipPath2">
        <path d="M156 38 L696 38 L696 416 L156 416 L156 38 Z"/>
      </clipPath>
    </defs>
    <g fill="white" transform="translate(-156,-38)" stroke="white">
      <rect x="156" width="540" height="378" y="38" clip-path="url(#clipPath2)" stroke="none"/>
    </g>
    <g stroke-linecap="butt" transform="matrix(1,0,0,1,-156,-38)" stroke-miterlimit="1.45">
      <path fill="none" d="M296.0992 291.5 L302.6849 272.5714" clip-path="url(#clipPath2)"/>
      <path d="M305.3138 265.0157 L296.6482 274.7062 L302.3563 273.5159 L306.0929 277.9923 Z" clip-path="url(#clipPath2)" stroke="none"/>
      <text x="357.0415" font-size="18" y="303.5238" clip-path="url(#clipPath2)" font-family="sans-serif" stroke="none" xml:space="preserve">is_a?</text>
      <path fill="none" d="M431.6661 325 L389.3045 271.3048" clip-path="url(#clipPath2)"/>
      <path d="M384.3494 265.024 L387.8565 277.5421 L389.9239 272.0899 L395.7075 271.3482 Z" clip-path="url(#clipPath2)" stroke="none"/>
      <path fill="none" d="M461.9201 265 L431.405 248.9843" clip-path="url(#clipPath2)"/>
      <path d="M424.3213 245.2665 L432.6231 255.2704 L432.2904 249.449 L437.2704 246.4159 Z" clip-path="url(#clipPath2)" stroke="none"/>
      <path fill="none" d="M436.9238 168.9485 L535.4382 144.5992" clip-path="url(#clipPath2)"/>
      <path fill="none" d="M432.1326 198.06 L535.0046 200.626" clip-path="url(#clipPath2)"/>
      <path fill="none" d="M567.1976 292.5734 L537 287.623" clip-path="url(#clipPath2)"/>
      <path fill="none" d="M569.4564 331.7747 L513.375 295" clip-path="url(#clipPath2)"/>
    </g>
    <g fill="rgb(255,204,153)" transform="matrix(1,0,0,1,-156,-38)" stroke="rgb(255,204,153)">
      <path d="M237.9 126 L444 126 L421.1 265 L215 265 Z" clip-path="url(#clipPath2)" fill-rule="evenodd" stroke="none"/>
    </g>
    <g font-size="18" stroke-miterlimit="1.45" font-family="sans-serif" transform="matrix(1,0,0,1,-156,-38)" stroke-linecap="butt">
      <text x="375.7119" xml:space="preserve" y="148.708" clip-path="url(#clipPath2)" stroke="none">Animal</text>
      <path fill="none" d="M237.9 126 L444 126 L421.1 265 L215 265 Z" fill-rule="evenodd" clip-path="url(#clipPath2)"/>
    </g>
    <g fill="rgb(255,204,0)" transform="matrix(1,0,0,1,-156,-38)" stroke="rgb(255,204,0)">
      <rect x="263" y="171.5" clip-path="url(#clipPath2)" width="84" rx="4" ry="4" height="30" stroke="none"/>
    </g>
    <g font-size="18" stroke-miterlimit="1.45" font-family="sans-serif" transform="matrix(1,0,0,1,-156,-38)" stroke-linecap="butt">
      <text x="266.9741" xml:space="preserve" y="192.7314" clip-path="url(#clipPath2)" stroke="none">Genome</text>
      <rect x="263" y="171.5" clip-path="url(#clipPath2)" fill="none" width="84" rx="4" ry="4" height="30"/>
    </g>
    <g fill="rgb(153,204,0)" transform="matrix(1,0,0,1,-156,-38)" stroke="rgb(153,204,0)">
      <circle r="15" clip-path="url(#clipPath2)" cx="550" cy="141" stroke="none"/>
    </g>
    <g font-size="18" stroke-miterlimit="1.45" font-family="sans-serif" transform="matrix(1,0,0,1,-156,-38)" stroke-linecap="butt">
      <text x="571" xml:space="preserve" y="147.2314" clip-path="url(#clipPath2)" stroke="none">::breed</text>
      <circle fill="none" r="15" clip-path="url(#clipPath2)" cx="550" cy="141"/>
    </g>
    <g fill="rgb(153,204,0)" transform="matrix(1,0,0,1,-156,-38)" stroke="rgb(153,204,0)">
      <circle r="15" clip-path="url(#clipPath2)" cx="550" cy="201" stroke="none"/>
    </g>
    <g font-size="18" stroke-miterlimit="1.45" font-family="sans-serif" transform="matrix(1,0,0,1,-156,-38)" stroke-linecap="butt">
      <text x="571" xml:space="preserve" y="207.2314" clip-path="url(#clipPath2)" stroke="none">::hunt</text>
      <circle fill="none" r="15" clip-path="url(#clipPath2)" cx="550" cy="201"/>
    </g>
    <g fill="silver" transform="matrix(1,0,0,1,-156,-38)" stroke="silver">
      <rect x="444" width="93" height="30" y="265" clip-path="url(#clipPath2)" stroke="none"/>
    </g>
    <g font-size="18" stroke-miterlimit="1.45" font-family="sans-serif" transform="matrix(1,0,0,1,-156,-38)" stroke-linecap="butt">
      <text x="457.5322" xml:space="preserve" y="286.2314" clip-path="url(#clipPath2)" stroke="none">George</text>
      <rect fill="none" x="444" width="93" height="30" y="265" clip-path="url(#clipPath2)"/>
    </g>
    <g fill="silver" transform="matrix(1,0,0,1,-156,-38)" stroke="silver">
      <rect x="397" width="93" height="30" y="325" clip-path="url(#clipPath2)" stroke="none"/>
    </g>
    <g font-size="18" stroke-miterlimit="1.45" font-family="sans-serif" transform="matrix(1,0,0,1,-156,-38)" stroke-linecap="butt">
      <text x="429.8242" xml:space="preserve" y="346.2314" clip-path="url(#clipPath2)" stroke="none">Bill</text>
      <rect fill="none" x="397" width="93" height="30" y="325" clip-path="url(#clipPath2)"/>
    </g>
    <g fill="silver" transform="matrix(1,0,0,1,-156,-38)" stroke="silver">
      <rect x="228.5" width="100" height="101.1667" y="291.5" clip-path="url(#clipPath2)" stroke="none"/>
    </g>
    <g font-size="18" stroke-miterlimit="1.45" font-family="sans-serif" transform="matrix(1,0,0,1,-156,-38)" stroke-linecap="butt">
      <text x="234.5" xml:space="preserve" y="314.208" clip-path="url(#clipPath2)" stroke="none">Daisy</text>
      <rect fill="none" x="228.5" width="100" height="101.1667" y="291.5" clip-path="url(#clipPath2)"/>
    </g>
    <g fill="rgb(51,204,204)" transform="matrix(1,0,0,1,-156,-38)" stroke="rgb(51,204,204)">
      <circle r="15" clip-path="url(#clipPath2)" cx="582" cy="295" stroke="none"/>
    </g>
    <g font-size="18" stroke-miterlimit="1.45" font-family="sans-serif" transform="matrix(1,0,0,1,-156,-38)" stroke-linecap="butt">
      <text x="603" xml:space="preserve" y="301.2314" clip-path="url(#clipPath2)" stroke="none">#greet</text>
      <circle fill="none" r="15" clip-path="url(#clipPath2)" cx="582" cy="295"/>
    </g>
    <g fill="rgb(51,204,204)" transform="matrix(1,0,0,1,-156,-38)" stroke="rgb(51,204,204)">
      <circle r="15" clip-path="url(#clipPath2)" cx="582" cy="340" stroke="none"/>
    </g>
    <g font-size="18" stroke-miterlimit="1.45" font-family="sans-serif" transform="matrix(1,0,0,1,-156,-38)" stroke-linecap="butt">
      <text x="603" xml:space="preserve" y="346.2314" clip-path="url(#clipPath2)" stroke="none">#eat</text>
      <circle fill="none" r="15" clip-path="url(#clipPath2)" cx="582" cy="340"/>
    </g>
    <g fill="rgb(255,255,153)" transform="matrix(1,0,0,1,-156,-38)" stroke="rgb(255,255,153)">
      <rect x="240" y="352" clip-path="url(#clipPath2)" width="77" rx="4" ry="4" height="30" stroke="none"/>
    </g>
    <g font-size="18" stroke-miterlimit="1.45" font-family="sans-serif" transform="matrix(1,0,0,1,-156,-38)" stroke-linecap="butt">
      <text x="255.8418" xml:space="preserve" y="373.2314" clip-path="url(#clipPath2)" stroke="none">Mass</text>
      <rect x="240" y="352" clip-path="url(#clipPath2)" fill="none" width="77" rx="4" ry="4" height="30"/>
      <text x="262.5107" xml:space="preserve" font-size="12" y="165.4043" clip-path="url(#clipPath2)" stroke="none">Class attributes</text>
      <text x="241.7031" xml:space="preserve" font-size="12" y="333.9199" clip-path="url(#clipPath2)" stroke="none">Instance</text>
      <text x="241.7031" xml:space="preserve" font-size="12" y="347.8887" clip-path="url(#clipPath2)" stroke="none">attributes</text>
    </g>
    <g fill="rgb(255,204,0)" transform="matrix(1,0,0,1,-156,-38)" stroke="rgb(255,204,0)">
      <rect x="263" y="211.8333" clip-path="url(#clipPath2)" width="105" rx="4" ry="4" height="30" stroke="none"/>
    </g>
    <g font-size="18" stroke-miterlimit="1.45" font-family="sans-serif" transform="matrix(1,0,0,1,-156,-38)" stroke-linecap="butt">
      <text x="271.436" xml:space="preserve" y="233.0648" clip-path="url(#clipPath2)" stroke="none">Skin Type</text>
      <rect x="263" y="211.8333" clip-path="url(#clipPath2)" fill="none" width="105" rx="4" ry="4" height="30"/>
    </g>
  </g>
</svg>
