<?xml version="1.0" encoding="UTF-8"?><svg xmlns="http://www.w3.org/2000/svg" xmlns:xlink="http://www.w3.org/1999/xlink" fill-opacity="1" color-rendering="auto" color-interpolation="auto" stroke="black" text-rendering="auto" stroke-linecap="square" width="540" stroke-miterlimit="10" stroke-opacity="1" shape-rendering="auto" fill="black" stroke-dasharray="none" font-weight="normal" stroke-width="1" height="378" font-family="'Dialog'" font-style="normal" stroke-linejoin="miter" font-size="12" stroke-dashoffset="0" image-rendering="auto">
  <!--Generated by ySVG-->
  <defs id="genericDefs"/>
  <g>
    <defs id="defs1">
      <clipPath clipPathUnits="userSpaceOnUse" id="clipPath1">
        <path d="M0 0 L540 0 L540 378 L0 378 L0 0 Z"/>
      </clipPath>
      <clipPath clipPathUnits="userSpaceOnUse" id="clipPath2">
        <path d="M156 38 L696 38 L696 416 L156 416 L156 38 Z"/>
      </clipPath>
    </defs>
    <g fill="white" transform="translate(-156,-38)" stroke="white">
      <rect x="156" width="540" height="378" y="38" clip-path="url(#clipPath2)" stroke="none"/>
    </g>
    <g stroke-linecap="butt" transform="matrix(1,0,0,1,-156,-38)" stroke-miterlimit="1.45">
      <path fill="none" d="M232.25 229.0321 L232.25 135.9726" clip-path="url(#clipPath2)"/>
      <path fill="none" d="M239.9459 166.0027 L235.8011 135.9757" clip-path="url(#clipPath2)"/>
      <path fill="none" d="M313.8831 165.9828 L269.9973 136.021" clip-path="url(#clipPath2)"/>
      <path fill="none" d="M379.9864 229.0145 L264.3148 136.0268" clip-path="url(#clipPath2)"/>
      <path fill="none" d="M302.3273 229.0321 L247.4254 135.9726" clip-path="url(#clipPath2)"/>
      <path fill="none" d="M405.8342 166.0127 L464.4497 138.1834" clip-path="url(#clipPath2)"/>
      <path fill="none" d="M407.0683 191.75 L463 191.75" clip-path="url(#clipPath2)"/>
      <path fill="none" d="M569.4564 303.2253 L513.375 340" clip-path="url(#clipPath2)"/>
      <path fill="none" d="M567.1976 342.4266 L537 347.377" clip-path="url(#clipPath2)"/>
      <path fill="none" d="M567.7466 380.3268 L536.25 370" clip-path="url(#clipPath2)"/>
      <path fill="none" d="M232.25 280.4844 L232.25 324.9836" clip-path="url(#clipPath2)"/>
      <path fill="none" d="M444 353.6276 L400.152 352.3335" clip-path="url(#clipPath2)"/>
      <path d="M392.1555 352.0975 L404.0028 357.4493 L401.1516 352.363 L404.2978 347.4536 Z" clip-path="url(#clipPath2)" stroke="none"/>
      <path fill="none" d="M232.2779 280.4974 L305.5909 325.5887" clip-path="url(#clipPath2)"/>
    </g>
    <g fill="rgb(255,204,153)" transform="matrix(1,0,0,1,-156,-38)" stroke="rgb(255,204,153)">
      <path d="M191.45 84.5 L283.25 84.5 L273.05 136 L181.25 136 Z" clip-path="url(#clipPath2)" fill-rule="evenodd" stroke="none"/>
    </g>
    <g font-size="18" stroke-miterlimit="1.45" font-family="sans-serif" transform="matrix(1,0,0,1,-156,-38)" stroke-linecap="butt">
      <text x="214.9619" xml:space="preserve" y="107.208" clip-path="url(#clipPath2)" stroke="none">Animal</text>
      <path fill="none" d="M191.45 84.5 L283.25 84.5 L273.05 136 L181.25 136 Z" fill-rule="evenodd" clip-path="url(#clipPath2)"/>
    </g>
    <g fill="rgb(153,204,0)" transform="matrix(1,0,0,1,-156,-38)" stroke="rgb(153,204,0)">
      <circle r="15" clip-path="url(#clipPath2)" cx="478" cy="131.75" stroke="none"/>
    </g>
    <g font-size="18" stroke-miterlimit="1.45" font-family="sans-serif" transform="matrix(1,0,0,1,-156,-38)" stroke-linecap="butt">
      <text x="499" xml:space="preserve" y="137.9814" clip-path="url(#clipPath2)" stroke="none">::breed</text>
      <circle fill="none" r="15" clip-path="url(#clipPath2)" cx="478" cy="131.75"/>
    </g>
    <g fill="rgb(153,204,0)" transform="matrix(1,0,0,1,-156,-38)" stroke="rgb(153,204,0)">
      <circle r="15" clip-path="url(#clipPath2)" cx="478" cy="191.75" stroke="none"/>
    </g>
    <g font-size="18" stroke-miterlimit="1.45" font-family="sans-serif" transform="matrix(1,0,0,1,-156,-38)" stroke-linecap="butt">
      <text x="499" xml:space="preserve" y="197.9814" clip-path="url(#clipPath2)" stroke="none">::hunt</text>
      <circle fill="none" r="15" clip-path="url(#clipPath2)" cx="478" cy="191.75"/>
    </g>
    <g fill="silver" transform="matrix(1,0,0,1,-156,-38)" stroke="silver">
      <rect x="444" width="93" height="30" y="340" clip-path="url(#clipPath2)" stroke="none"/>
    </g>
    <g font-size="18" stroke-miterlimit="1.45" font-family="sans-serif" transform="matrix(1,0,0,1,-156,-38)" stroke-linecap="butt">
      <text x="457.5322" xml:space="preserve" y="361.2314" clip-path="url(#clipPath2)" stroke="none">George</text>
      <rect fill="none" x="444" width="93" height="30" y="340" clip-path="url(#clipPath2)"/>
    </g>
    <g fill="rgb(51,204,204)" transform="matrix(1,0,0,1,-156,-38)" stroke="rgb(51,204,204)">
      <circle r="15" clip-path="url(#clipPath2)" cx="582" cy="295" stroke="none"/>
    </g>
    <g font-size="18" stroke-miterlimit="1.45" font-family="sans-serif" transform="matrix(1,0,0,1,-156,-38)" stroke-linecap="butt">
      <text x="603" xml:space="preserve" y="301.2314" clip-path="url(#clipPath2)" stroke="none">#greet</text>
      <circle fill="none" r="15" clip-path="url(#clipPath2)" cx="582" cy="295"/>
    </g>
    <g fill="rgb(51,204,204)" transform="matrix(1,0,0,1,-156,-38)" stroke="rgb(51,204,204)">
      <circle r="15" clip-path="url(#clipPath2)" cx="582" cy="340" stroke="none"/>
    </g>
    <g font-size="18" stroke-miterlimit="1.45" font-family="sans-serif" transform="matrix(1,0,0,1,-156,-38)" stroke-linecap="butt">
      <text x="603" xml:space="preserve" y="346.2314" clip-path="url(#clipPath2)" stroke="none">#eat</text>
      <circle fill="none" r="15" clip-path="url(#clipPath2)" cx="582" cy="340"/>
    </g>
    <g fill="rgb(255,153,204)" transform="matrix(1,0,0,1,-156,-38)" stroke="rgb(255,153,204)">
      <path d="M211.7 166 L283.25 166 L275.3 217.5 L203.75 217.5 Z" clip-path="url(#clipPath2)" fill-rule="evenodd" stroke="none"/>
    </g>
    <g font-size="18" stroke-miterlimit="1.45" font-family="sans-serif" transform="matrix(1,0,0,1,-156,-38)" stroke-linecap="butt">
      <text x="214.1094" xml:space="preserve" y="188.708" clip-path="url(#clipPath2)" stroke="none">Reptile</text>
      <path fill="none" d="M211.7 166 L283.25 166 L275.3 217.5 L203.75 217.5 Z" fill-rule="evenodd" clip-path="url(#clipPath2)"/>
    </g>
    <g fill="rgb(255,153,204)" transform="matrix(1,0,0,1,-156,-38)" stroke="rgb(255,153,204)">
      <path d="M191.45 229 L283.25 229 L273.05 280.5 L181.25 280.5 Z" clip-path="url(#clipPath2)" fill-rule="evenodd" stroke="none"/>
    </g>
    <g font-size="18" stroke-miterlimit="1.45" font-family="sans-serif" transform="matrix(1,0,0,1,-156,-38)" stroke-linecap="butt">
      <text x="199.5898" xml:space="preserve" y="251.708" clip-path="url(#clipPath2)" stroke="none">Mammal</text>
      <path fill="none" d="M191.45 229 L283.25 229 L273.05 280.5 L181.25 280.5 Z" fill-rule="evenodd" clip-path="url(#clipPath2)"/>
    </g>
    <g fill="rgb(255,153,204)" transform="matrix(1,0,0,1,-156,-38)" stroke="rgb(255,153,204)">
      <path d="M295.5 229 L345 229 L339.5 280.5 L290 280.5 Z" clip-path="url(#clipPath2)" fill-rule="evenodd" stroke="none"/>
    </g>
    <g font-size="18" stroke-miterlimit="1.45" font-family="sans-serif" transform="matrix(1,0,0,1,-156,-38)" stroke-linecap="butt">
      <text x="302.8594" xml:space="preserve" y="251.708" clip-path="url(#clipPath2)" stroke="none">Fish</text>
      <path fill="none" d="M295.5 229 L345 229 L339.5 280.5 L290 280.5 Z" fill-rule="evenodd" clip-path="url(#clipPath2)"/>
    </g>
    <g fill="rgb(255,153,204)" transform="matrix(1,0,0,1,-156,-38)" stroke="rgb(255,153,204)">
      <path d="M371.2 229 L463 229 L452.8 280.5 L361 280.5 Z" clip-path="url(#clipPath2)" fill-rule="evenodd" stroke="none"/>
    </g>
    <g font-size="18" stroke-miterlimit="1.45" font-family="sans-serif" transform="matrix(1,0,0,1,-156,-38)" stroke-linecap="butt">
      <text x="376.501" xml:space="preserve" y="251.708" clip-path="url(#clipPath2)" stroke="none">Dinosaur</text>
      <path fill="none" d="M371.2 229 L463 229 L452.8 280.5 L361 280.5 Z" fill-rule="evenodd" clip-path="url(#clipPath2)"/>
    </g>
    <g fill="rgb(204,153,255)" transform="matrix(1,0,0,1,-156,-38)" stroke="rgb(204,153,255)">
      <path d="M191.45 325 L283.25 325 L273.05 376.5 L181.25 376.5 Z" clip-path="url(#clipPath2)" fill-rule="evenodd" stroke="none"/>
    </g>
    <g font-size="18" stroke-miterlimit="1.45" font-family="sans-serif" transform="matrix(1,0,0,1,-156,-38)" stroke-linecap="butt">
      <text x="233.8408" xml:space="preserve" y="347.708" clip-path="url(#clipPath2)" stroke="none">Deer</text>
      <path fill="none" d="M191.45 325 L283.25 325 L273.05 376.5 L181.25 376.5 Z" fill-rule="evenodd" clip-path="url(#clipPath2)"/>
    </g>
    <g fill="rgb(204,153,255)" transform="matrix(1,0,0,1,-156,-38)" stroke="rgb(204,153,255)">
      <path d="M305.7 325 L397.5 325 L387.3 376.5 L295.5 376.5 Z" clip-path="url(#clipPath2)" fill-rule="evenodd" stroke="none"/>
    </g>
    <g font-size="18" stroke-miterlimit="1.45" font-family="sans-serif" transform="matrix(1,0,0,1,-156,-38)" stroke-linecap="butt">
      <text x="307.1074" xml:space="preserve" y="347.708" clip-path="url(#clipPath2)" stroke="none">Housecat</text>
      <path fill="none" d="M305.7 325 L397.5 325 L387.3 376.5 L295.5 376.5 Z" fill-rule="evenodd" clip-path="url(#clipPath2)"/>
    </g>
    <g fill="rgb(255,153,204)" transform="matrix(1,0,0,1,-156,-38)" stroke="rgb(255,153,204)">
      <path d="M302.325 166 L413.25 166 L400.925 217.5 L290 217.5 Z" clip-path="url(#clipPath2)" fill-rule="evenodd" stroke="none"/>
    </g>
    <g font-size="18" stroke-miterlimit="1.45" font-family="sans-serif" transform="matrix(1,0,0,1,-156,-38)" stroke-linecap="butt">
      <text x="310.7021" xml:space="preserve" y="188.708" clip-path="url(#clipPath2)" stroke="none">Amphibian</text>
      <path fill="none" d="M302.325 166 L413.25 166 L400.925 217.5 L290 217.5 Z" fill-rule="evenodd" clip-path="url(#clipPath2)"/>
    </g>
    <g fill="rgb(204,255,255)" transform="matrix(1,0,0,1,-156,-38)" stroke="rgb(204,255,255)">
      <circle r="15" clip-path="url(#clipPath2)" cx="582" cy="385" stroke="none"/>
    </g>
    <g font-size="18" stroke-miterlimit="1.45" font-family="sans-serif" transform="matrix(1,0,0,1,-156,-38)" stroke-linecap="butt">
      <text x="603" xml:space="preserve" y="391.2314" clip-path="url(#clipPath2)" stroke="none">#play</text>
      <circle fill="none" r="15" clip-path="url(#clipPath2)" cx="582" cy="385"/>
    </g>
  </g>
</svg>
