<?xml version="1.0" encoding="UTF-8"?><svg xmlns="http://www.w3.org/2000/svg" xmlns:xlink="http://www.w3.org/1999/xlink" fill-opacity="1" color-rendering="auto" color-interpolation="auto" stroke="black" text-rendering="auto" stroke-linecap="square" width="540" stroke-miterlimit="10" stroke-opacity="1" shape-rendering="auto" fill="black" stroke-dasharray="none" font-weight="normal" stroke-width="1" height="378" font-family="'Dialog'" font-style="normal" stroke-linejoin="miter" font-size="12" stroke-dashoffset="0" image-rendering="auto">
  <!--Generated by ySVG-->
  <defs id="genericDefs"/>
  <g>
    <defs id="defs1">
      <clipPath clipPathUnits="userSpaceOnUse" id="clipPath1">
        <path d="M0 0 L540 0 L540 378 L0 378 L0 0 Z"/>
      </clipPath>
      <clipPath clipPathUnits="userSpaceOnUse" id="clipPath2">
        <path d="M156 38 L696 38 L696 416 L156 416 L156 38 Z"/>
      </clipPath>
    </defs>
    <g fill="white" transform="translate(-156,-38)" stroke="white">
      <rect x="156" width="540" height="378" y="38" clip-path="url(#clipPath2)" stroke="none"/>
    </g>
    <g stroke-linecap="butt" transform="matrix(1,0,0,1,-156,-38)" stroke-miterlimit="1.45">
      <path fill="none" d="M404 191.5231 L404 166.7056" clip-path="url(#clipPath2)"/>
      <path fill="none" d="M449.8745 141 L535 141" clip-path="url(#clipPath2)"/>
      <path fill="none" d="M446.4526 158.4463 L536.1259 195.2983" clip-path="url(#clipPath2)"/>
      <path fill="none" d="M567.0238 294.1552 L531 292.1231" clip-path="url(#clipPath2)"/>
      <path fill="none" d="M568.6806 333.1012 L513.4604 304.5" clip-path="url(#clipPath2)"/>
      <path fill="none" d="M571.2841 374.5039 L499.8141 304.5" clip-path="url(#clipPath2)"/>
      <path fill="none" d="M467.7872 304.5 L438.6393 330.6607" clip-path="url(#clipPath2)"/>
      <path d="M432.6855 336.0043 L444.9558 331.71 L439.3835 329.9928 L438.2764 324.2679 Z" clip-path="url(#clipPath2)" stroke="none"/>
      <path fill="none" d="M404 242.9679 L404 336.0274" clip-path="url(#clipPath2)"/>
      <path fill="none" d="M368.4474 336.005 L278.5469 270.9047" clip-path="url(#clipPath2)"/>
      <path d="M272.0674 266.2126 L278.8541 277.3004 L279.3569 271.4912 L284.7193 269.201 Z" clip-path="url(#clipPath2)" stroke="none"/>
      <path fill="none" d="M356.3759 225.9089 L283.2625 239.2023" clip-path="url(#clipPath2)"/>
      <path d="M275.3915 240.6334 L288.0923 243.4061 L284.2463 239.0234 L286.3035 233.5674 Z" clip-path="url(#clipPath2)" stroke="none"/>
      <path fill="none" d="M364.9427 166.7729 L284.1402 220.0924" clip-path="url(#clipPath2)"/>
      <path d="M277.463 224.4986 L290.2327 222.0626 L284.9749 219.5416 L284.725 213.716 Z" clip-path="url(#clipPath2)" stroke="none"/>
      <path fill="none" d="M244.5 220.4886 L244.5 190.5088" clip-path="url(#clipPath2)"/>
    </g>
    <g fill="rgb(255,204,153)" transform="matrix(1,0,0,1,-156,-38)" stroke="rgb(255,204,153)">
      <path d="M363.2 115.25 L455 115.25 L444.8 166.75 L353 166.75 Z" clip-path="url(#clipPath2)" fill-rule="evenodd" stroke="none"/>
    </g>
    <g font-size="18" stroke-miterlimit="1.45" font-family="sans-serif" transform="matrix(1,0,0,1,-156,-38)" stroke-linecap="butt">
      <text x="386.7119" xml:space="preserve" y="137.958" clip-path="url(#clipPath2)" stroke="none">Animal</text>
      <path fill="none" d="M363.2 115.25 L455 115.25 L444.8 166.75 L353 166.75 Z" fill-rule="evenodd" clip-path="url(#clipPath2)"/>
    </g>
    <g fill="rgb(153,204,0)" transform="matrix(1,0,0,1,-156,-38)" stroke="rgb(153,204,0)">
      <circle r="15" clip-path="url(#clipPath2)" cx="550" cy="141" stroke="none"/>
    </g>
    <g stroke-linecap="butt" transform="matrix(1,0,0,1,-156,-38)" stroke-miterlimit="1.45">
      <circle fill="none" r="15" clip-path="url(#clipPath2)" cx="550" cy="141"/>
    </g>
    <g fill="rgb(153,204,0)" transform="matrix(1,0,0,1,-156,-38)" stroke="rgb(153,204,0)">
      <circle r="15" clip-path="url(#clipPath2)" cx="550" cy="201" stroke="none"/>
    </g>
    <g stroke-linecap="butt" transform="matrix(1,0,0,1,-156,-38)" stroke-miterlimit="1.45">
      <circle fill="none" r="15" clip-path="url(#clipPath2)" cx="550" cy="201"/>
    </g>
    <g fill="silver" transform="matrix(1,0,0,1,-156,-38)" stroke="silver">
      <rect x="438" width="93" height="30" y="274.5" clip-path="url(#clipPath2)" stroke="none"/>
    </g>
    <g font-size="18" stroke-miterlimit="1.45" font-family="sans-serif" transform="matrix(1,0,0,1,-156,-38)" stroke-linecap="butt">
      <text x="447.2388" xml:space="preserve" y="295.7314" clip-path="url(#clipPath2)" stroke="none">Your cat</text>
      <rect fill="none" x="438" width="93" height="30" y="274.5" clip-path="url(#clipPath2)"/>
    </g>
    <g fill="rgb(51,204,204)" transform="matrix(1,0,0,1,-156,-38)" stroke="rgb(51,204,204)">
      <circle r="15" clip-path="url(#clipPath2)" cx="582" cy="295" stroke="none"/>
    </g>
    <g stroke-linecap="butt" transform="matrix(1,0,0,1,-156,-38)" stroke-miterlimit="1.45">
      <circle fill="none" r="15" clip-path="url(#clipPath2)" cx="582" cy="295"/>
    </g>
    <g fill="rgb(51,204,204)" transform="matrix(1,0,0,1,-156,-38)" stroke="rgb(51,204,204)">
      <circle r="15" clip-path="url(#clipPath2)" cx="582" cy="340" stroke="none"/>
    </g>
    <g stroke-linecap="butt" transform="matrix(1,0,0,1,-156,-38)" stroke-miterlimit="1.45">
      <circle fill="none" r="15" clip-path="url(#clipPath2)" cx="582" cy="340"/>
    </g>
    <g fill="rgb(255,153,204)" transform="matrix(1,0,0,1,-156,-38)" stroke="rgb(255,153,204)">
      <path d="M363.2 191.5 L455 191.5 L444.8 243 L353 243 Z" clip-path="url(#clipPath2)" fill-rule="evenodd" stroke="none"/>
    </g>
    <g font-size="18" stroke-miterlimit="1.45" font-family="sans-serif" transform="matrix(1,0,0,1,-156,-38)" stroke-linecap="butt">
      <text x="371.3398" xml:space="preserve" y="214.208" clip-path="url(#clipPath2)" stroke="none">Mammal</text>
      <path fill="none" d="M363.2 191.5 L455 191.5 L444.8 243 L353 243 Z" fill-rule="evenodd" clip-path="url(#clipPath2)"/>
    </g>
    <g fill="rgb(204,153,255)" transform="matrix(1,0,0,1,-156,-38)" stroke="rgb(204,153,255)">
      <path d="M363.2 336 L455 336 L444.8 387.5 L353 387.5 Z" clip-path="url(#clipPath2)" fill-rule="evenodd" stroke="none"/>
    </g>
    <g font-size="18" stroke-miterlimit="1.45" font-family="sans-serif" transform="matrix(1,0,0,1,-156,-38)" stroke-linecap="butt">
      <text x="364.6074" xml:space="preserve" y="358.708" clip-path="url(#clipPath2)" stroke="none">Housecat</text>
      <path fill="none" d="M363.2 336 L455 336 L444.8 387.5 L353 387.5 Z" fill-rule="evenodd" clip-path="url(#clipPath2)"/>
    </g>
    <g fill="rgb(204,255,255)" transform="matrix(1,0,0,1,-156,-38)" stroke="rgb(204,255,255)">
      <circle r="15" clip-path="url(#clipPath2)" cx="582" cy="385" stroke="none"/>
    </g>
    <g stroke-linecap="butt" transform="matrix(1,0,0,1,-156,-38)" stroke-miterlimit="1.45">
      <circle fill="none" r="15" clip-path="url(#clipPath2)" cx="582" cy="385"/>
    </g>
    <g fill="rgb(51,204,204)" transform="matrix(1,0,0,1,-156,-38)" stroke="rgb(51,204,204)">
      <path d="M217.7 220.5 L278 220.5 L271.3 272 L211 272 Z" clip-path="url(#clipPath2)" fill-rule="evenodd" stroke="none"/>
    </g>
    <g font-size="18" stroke-miterlimit="1.45" font-family="sans-serif" transform="matrix(1,0,0,1,-156,-38)" stroke-linecap="butt">
      <text x="224.6445" xml:space="preserve" y="243.208" clip-path="url(#clipPath2)" stroke="none">Class</text>
      <path fill="none" d="M217.7 220.5 L278 220.5 L271.3 272 L211 272 Z" fill-rule="evenodd" clip-path="url(#clipPath2)"/>
    </g>
    <g fill="rgb(255,204,0)" transform="matrix(1,0,0,1,-156,-38)" stroke="rgb(255,204,0)">
      <path d="M178.5 126.75 L244.5 63 L310.5 126.75 L244.5 190.5 Z" clip-path="url(#clipPath2)" fill-rule="evenodd" stroke="none"/>
    </g>
    <g font-size="18" stroke-miterlimit="1.45" font-family="sans-serif" transform="matrix(1,0,0,1,-156,-38)" stroke-linecap="butt">
      <text x="211.7739" xml:space="preserve" y="132.9814" clip-path="url(#clipPath2)" stroke="none">Module</text>
      <path fill="none" d="M178.5 126.75 L244.5 63 L310.5 126.75 L244.5 190.5 Z" fill-rule="evenodd" clip-path="url(#clipPath2)"/>
    </g>
  </g>
</svg>
