<?xml version="1.0" encoding="UTF-8"?><svg xmlns="http://www.w3.org/2000/svg" xmlns:xlink="http://www.w3.org/1999/xlink" fill-opacity="1" color-rendering="auto" color-interpolation="auto" stroke="black" text-rendering="auto" stroke-linecap="square" width="811" stroke-miterlimit="10" stroke-opacity="1" shape-rendering="auto" fill="black" stroke-dasharray="none" font-weight="normal" stroke-width="1" height="350" font-family="'Dialog'" font-style="normal" stroke-linejoin="miter" font-size="12px" stroke-dashoffset="0" image-rendering="auto">
  <!--Generated by ySVG 2.5-->
  <defs id="genericDefs"/>
  <g>
    <defs id="defs1">
      <clipPath clipPathUnits="userSpaceOnUse" id="clipPath1">
        <path d="M0 0 L811 0 L811 350 L0 350 L0 0 Z"/>
      </clipPath>
      <clipPath clipPathUnits="userSpaceOnUse" id="clipPath2">
        <path d="M51 -15 L862 -15 L862 335 L51 335 L51 -15 Z"/>
      </clipPath>
    </defs>
    <g fill="white" text-rendering="geometricPrecision" shape-rendering="geometricPrecision" transform="translate(-51,15)" stroke="white">
      <rect x="51" width="811" height="350" y="-15" clip-path="url(#clipPath2)" stroke="none"/>
    </g>
    <g text-rendering="geometricPrecision" stroke-miterlimit="1.45" shape-rendering="geometricPrecision" transform="matrix(1,0,0,1,-51,15)" stroke-linecap="butt">
      <path fill="none" d="M152 73.9853 L313.0266 60.8233" clip-path="url(#clipPath2)"/>
      <path d="M321 60.1716 L308.6326 56.1658 L312.0299 60.9048 L309.4472 66.1326 Z" clip-path="url(#clipPath2)" stroke="none"/>
      <path fill="none" d="M152 221.9963 L313.0434 238.8359" clip-path="url(#clipPath2)"/>
      <path d="M321 239.6679 L309.5851 233.447 L312.0488 238.7319 L308.5451 243.3928 Z" clip-path="url(#clipPath2)" stroke="none"/>
      <path fill="none" d="M152 82.5663 L313.055 101.5418" clip-path="url(#clipPath2)"/>
      <path d="M321 102.4779 L309.6675 96.1081 L312.0618 101.4248 L308.4974 106.0394 Z" clip-path="url(#clipPath2)" stroke="none"/>
      <path fill="none" d="M152 152.2813 L313.049 170.1888" clip-path="url(#clipPath2)"/>
      <path d="M321 171.0729 L309.6261 164.7774 L312.0551 170.0783 L308.5209 174.7161 Z" clip-path="url(#clipPath2)" stroke="none"/>
      <path fill="none" stroke-dasharray="6,2" d="M242 290 L242 30" clip-path="url(#clipPath2)"/>
      <path fill="none" stroke-dasharray="6,2" d="M631 290 L631 30" clip-path="url(#clipPath2)"/>
      <path fill="none" d="M576 100.4716 L673.0704 87.5073" clip-path="url(#clipPath2)"/>
      <path d="M681 86.4482 L668.4437 83.0808 L672.0792 87.6397 L669.7675 92.9928 Z" clip-path="url(#clipPath2)" stroke="none"/>
      <path fill="none" d="M559.9418 165.25 L673.1258 144.9374" clip-path="url(#clipPath2)"/>
      <path d="M681 143.5242 L668.3055 140.7226 L672.1415 145.114 L670.0719 150.5653 Z" clip-path="url(#clipPath2)" stroke="none"/>
      <path fill="none" d="M576 185.25 L673 185.25" clip-path="url(#clipPath2)"/>
      <path d="M681 185.25 L669 180.25 L672 185.25 L669 190.25 Z" clip-path="url(#clipPath2)" stroke="none"/>
      <path fill="none" d="M576 49.75 L846.6667 49.75 L846.6667 240 L823 240" clip-path="url(#clipPath2)"/>
      <path d="M815 240 L827 245 L824 240 L827 235 Z" clip-path="url(#clipPath2)" stroke="none"/>
      <path fill="none" d="M576 247.4658 L673.0075 243.2551" clip-path="url(#clipPath2)"/>
      <path d="M681 242.9082 L668.7945 238.4333 L672.0085 243.2985 L669.2281 248.4238 Z" clip-path="url(#clipPath2)" stroke="none"/>
    </g>
    <g fill="yellow" text-rendering="geometricPrecision" shape-rendering="geometricPrecision" transform="matrix(1,0,0,1,-51,15)" stroke="yellow">
      <rect x="66" width="86" height="40" y="57.5" clip-path="url(#clipPath2)" stroke="none"/>
    </g>
    <g font-size="18px" stroke-linecap="butt" transform="matrix(1,0,0,1,-51,15)" text-rendering="geometricPrecision" font-family="sans-serif" shape-rendering="geometricPrecision" stroke-miterlimit="1.45">
      <text x="72" xml:space="preserve" y="80.208" clip-path="url(#clipPath2)" stroke="none">web1</text>
      <rect fill="none" x="66" width="86" height="40" y="57.5" clip-path="url(#clipPath2)"/>
    </g>
    <g fill="yellow" text-rendering="geometricPrecision" shape-rendering="geometricPrecision" transform="matrix(1,0,0,1,-51,15)" stroke="yellow">
      <rect x="66" width="86" height="40" y="127.5" clip-path="url(#clipPath2)" stroke="none"/>
    </g>
    <g font-size="18px" stroke-linecap="butt" transform="matrix(1,0,0,1,-51,15)" text-rendering="geometricPrecision" font-family="sans-serif" shape-rendering="geometricPrecision" stroke-miterlimit="1.45">
      <text x="72" xml:space="preserve" y="150.208" clip-path="url(#clipPath2)" stroke="none">db1</text>
      <rect fill="none" x="66" width="86" height="40" y="127.5" clip-path="url(#clipPath2)"/>
    </g>
    <g fill="yellow" text-rendering="geometricPrecision" shape-rendering="geometricPrecision" transform="matrix(1,0,0,1,-51,15)" stroke="yellow">
      <rect x="66" width="86" height="40" y="197.5" clip-path="url(#clipPath2)" stroke="none"/>
    </g>
    <g font-size="18px" stroke-linecap="butt" transform="matrix(1,0,0,1,-51,15)" text-rendering="geometricPrecision" font-family="sans-serif" shape-rendering="geometricPrecision" stroke-miterlimit="1.45">
      <text x="72" xml:space="preserve" y="220.208" clip-path="url(#clipPath2)" stroke="none">web2</text>
      <rect fill="none" x="66" width="86" height="40" y="197.5" clip-path="url(#clipPath2)"/>
    </g>
    <g fill="rgb(255,204,153)" text-rendering="geometricPrecision" shape-rendering="geometricPrecision" transform="matrix(1,0,0,1,-51,15)" stroke="rgb(255,204,153)">
      <rect x="321" width="255" height="40" y="29.75" clip-path="url(#clipPath2)" stroke="none"/>
    </g>
    <g font-size="18px" stroke-linecap="butt" transform="matrix(1,0,0,1,-51,15)" text-rendering="geometricPrecision" font-family="sans-serif" shape-rendering="geometricPrecision" stroke-miterlimit="1.45">
      <text x="327" xml:space="preserve" y="52.458" clip-path="url(#clipPath2)" stroke="none">Profile: apache_customer1</text>
      <rect fill="none" x="321" width="255" height="40" y="29.75" clip-path="url(#clipPath2)"/>
    </g>
    <g fill="rgb(255,204,153)" text-rendering="geometricPrecision" shape-rendering="geometricPrecision" transform="matrix(1,0,0,1,-51,15)" stroke="rgb(255,204,153)">
      <rect x="321" width="255" height="40" y="233" clip-path="url(#clipPath2)" stroke="none"/>
    </g>
    <g font-size="18px" stroke-linecap="butt" transform="matrix(1,0,0,1,-51,15)" text-rendering="geometricPrecision" font-family="sans-serif" shape-rendering="geometricPrecision" stroke-miterlimit="1.45">
      <text x="327" xml:space="preserve" y="255.708" clip-path="url(#clipPath2)" stroke="none">Profile: apache_customer2</text>
      <rect fill="none" x="321" width="255" height="40" y="233" clip-path="url(#clipPath2)"/>
    </g>
    <g fill="rgb(255,204,153)" text-rendering="geometricPrecision" shape-rendering="geometricPrecision" transform="matrix(1,0,0,1,-51,15)" stroke="rgb(255,204,153)">
      <rect x="321" width="255" height="40" y="97.5" clip-path="url(#clipPath2)" stroke="none"/>
    </g>
    <g font-size="18px" stroke-linecap="butt" transform="matrix(1,0,0,1,-51,15)" text-rendering="geometricPrecision" font-family="sans-serif" shape-rendering="geometricPrecision" stroke-miterlimit="1.45">
      <text x="327" xml:space="preserve" y="120.208" clip-path="url(#clipPath2)" stroke="none">Profile: nginx</text>
      <rect fill="none" x="321" width="255" height="40" y="97.5" clip-path="url(#clipPath2)"/>
    </g>
    <g fill="rgb(255,204,153)" text-rendering="geometricPrecision" shape-rendering="geometricPrecision" transform="matrix(1,0,0,1,-51,15)" stroke="rgb(255,204,153)">
      <rect x="321" width="255" height="40" y="165.25" clip-path="url(#clipPath2)" stroke="none"/>
    </g>
    <g font-size="18px" stroke-linecap="butt" transform="matrix(1,0,0,1,-51,15)" text-rendering="geometricPrecision" font-family="sans-serif" shape-rendering="geometricPrecision" stroke-miterlimit="1.45">
      <text x="327" xml:space="preserve" y="191.4814" clip-path="url(#clipPath2)" stroke="none">Profile: mysql</text>
      <rect fill="none" x="321" width="255" height="40" y="165.25" clip-path="url(#clipPath2)"/>
    </g>
    <g fill="rgb(204,255,204)" text-rendering="geometricPrecision" shape-rendering="geometricPrecision" transform="matrix(1,0,0,1,-51,15)" stroke="rgb(204,255,204)">
      <rect x="681" width="134" height="40" y="57.5" clip-path="url(#clipPath2)" stroke="none"/>
    </g>
    <g font-size="18px" stroke-linecap="butt" transform="matrix(1,0,0,1,-51,15)" text-rendering="geometricPrecision" font-family="sans-serif" shape-rendering="geometricPrecision" stroke-miterlimit="1.45">
      <text x="687" xml:space="preserve" y="80.208" clip-path="url(#clipPath2)" stroke="none">nginx</text>
      <rect fill="none" x="681" width="134" height="40" y="57.5" clip-path="url(#clipPath2)"/>
    </g>
    <g fill="rgb(204,255,204)" text-rendering="geometricPrecision" shape-rendering="geometricPrecision" transform="matrix(1,0,0,1,-51,15)" stroke="rgb(204,255,204)">
      <rect x="681" width="134" height="40" y="111.5" clip-path="url(#clipPath2)" stroke="none"/>
    </g>
    <g font-size="18px" stroke-linecap="butt" transform="matrix(1,0,0,1,-51,15)" text-rendering="geometricPrecision" font-family="sans-serif" shape-rendering="geometricPrecision" stroke-miterlimit="1.45">
      <text x="687" xml:space="preserve" y="134.208" clip-path="url(#clipPath2)" stroke="none">mysql</text>
      <rect fill="none" x="681" width="134" height="40" y="111.5" clip-path="url(#clipPath2)"/>
    </g>
    <g fill="rgb(204,255,204)" text-rendering="geometricPrecision" shape-rendering="geometricPrecision" transform="matrix(1,0,0,1,-51,15)" stroke="rgb(204,255,204)">
      <rect x="681" width="134" height="40" y="165.25" clip-path="url(#clipPath2)" stroke="none"/>
    </g>
    <g font-size="18px" stroke-linecap="butt" transform="matrix(1,0,0,1,-51,15)" text-rendering="geometricPrecision" font-family="sans-serif" shape-rendering="geometricPrecision" stroke-miterlimit="1.45">
      <text x="687" xml:space="preserve" y="187.958" clip-path="url(#clipPath2)" stroke="none">io_tuning</text>
      <rect fill="none" x="681" width="134" height="40" y="165.25" clip-path="url(#clipPath2)"/>
    </g>
    <g fill="rgb(204,255,204)" text-rendering="geometricPrecision" shape-rendering="geometricPrecision" transform="matrix(1,0,0,1,-51,15)" stroke="rgb(204,255,204)">
      <rect x="681" width="134" height="40" y="220" clip-path="url(#clipPath2)" stroke="none"/>
    </g>
    <g font-size="18px" stroke-linecap="butt" transform="matrix(1,0,0,1,-51,15)" text-rendering="geometricPrecision" font-family="sans-serif" shape-rendering="geometricPrecision" stroke-miterlimit="1.45">
      <text x="687" xml:space="preserve" y="242.708" clip-path="url(#clipPath2)" stroke="none">apache</text>
      <rect fill="none" x="681" width="134" height="40" y="220" clip-path="url(#clipPath2)"/>
      <text x="81.793" xml:space="preserve" font-size="20px" y="311.9238" clip-path="url(#clipPath2)" stroke="none">Roles</text>
      <text x="411.8008" xml:space="preserve" font-size="20px" y="311.9238" clip-path="url(#clipPath2)" stroke="none">Profiles</text>
      <text x="706.4277" xml:space="preserve" font-size="20px" y="311.9238" clip-path="url(#clipPath2)" stroke="none">Modules</text>
    </g>
  </g>
</svg>
