<?xml version="1.0" encoding="UTF-8"?><svg xmlns="http://www.w3.org/2000/svg" xmlns:xlink="http://www.w3.org/1999/xlink" fill-opacity="1" color-rendering="auto" color-interpolation="auto" stroke="black" text-rendering="auto" stroke-linecap="square" width="873" stroke-miterlimit="10" stroke-opacity="1" shape-rendering="auto" fill="black" stroke-dasharray="none" font-weight="normal" stroke-width="1" height="331" font-family="'Dialog'" font-style="normal" stroke-linejoin="miter" font-size="12px" stroke-dashoffset="0" image-rendering="auto">
  <!--Generated by ySVG 2.5-->
  <defs id="genericDefs"/>
  <g>
    <defs id="defs1">
      <clipPath clipPathUnits="userSpaceOnUse" id="clipPath1">
        <path d="M0 0 L873 0 L873 331 L0 331 L0 0 Z"/>
      </clipPath>
      <clipPath clipPathUnits="userSpaceOnUse" id="clipPath2">
        <path d="M-12 34 L861 34 L861 365 L-12 365 L-12 34 Z"/>
      </clipPath>
    </defs>
    <g fill="white" text-rendering="geometricPrecision" shape-rendering="geometricPrecision" transform="translate(12,-34)" stroke="white">
      <rect x="-12" width="873" height="331" y="34" clip-path="url(#clipPath2)" stroke="none"/>
    </g>
    <g font-size="18px" stroke-linecap="butt" transform="matrix(1,0,0,1,12,-34)" text-rendering="geometricPrecision" font-family="sans-serif" shape-rendering="geometricPrecision" stroke-miterlimit="1.45">
      <text x="9" xml:space="preserve" y="71.708" clip-path="url(#clipPath2)" stroke="none">Class</text>
      <text x="9" xml:space="preserve" y="92.6611" clip-path="url(#clipPath2)" stroke="none">varnish</text>
      <rect fill="none" x="3" width="201" height="301" y="49" clip-path="url(#clipPath2)"/>
      <text x="330" xml:space="preserve" y="71.708" clip-path="url(#clipPath2)" stroke="none">Class</text>
      <text x="330" xml:space="preserve" y="92.6611" clip-path="url(#clipPath2)" stroke="none">apache</text>
      <rect fill="none" x="324" width="201" height="301" y="49" clip-path="url(#clipPath2)"/>
      <text x="651" xml:space="preserve" y="71.708" clip-path="url(#clipPath2)" stroke="none">Class</text>
      <text x="651" xml:space="preserve" y="92.6611" clip-path="url(#clipPath2)" stroke="none">jvm</text>
      <rect fill="none" x="645" width="201" height="301" y="49" clip-path="url(#clipPath2)"/>
    </g>
    <g fill="yellow" text-rendering="geometricPrecision" shape-rendering="geometricPrecision" transform="matrix(1,0,0,1,12,-34)" stroke="yellow">
      <circle r="15" clip-path="url(#clipPath2)" cx="37" cy="125" stroke="none"/>
    </g>
    <g text-rendering="geometricPrecision" stroke-miterlimit="1.45" shape-rendering="geometricPrecision" font-family="sans-serif" transform="matrix(1,0,0,1,12,-34)" stroke-linecap="butt">
      <text x="58" xml:space="preserve" y="122.1699" clip-path="url(#clipPath2)" stroke="none">Package</text>
      <text x="58" xml:space="preserve" y="136.1387" clip-path="url(#clipPath2)" stroke="none">varnish</text>
      <circle fill="none" r="15" clip-path="url(#clipPath2)" cx="37" cy="125"/>
    </g>
    <g fill="yellow" text-rendering="geometricPrecision" shape-rendering="geometricPrecision" transform="matrix(1,0,0,1,12,-34)" stroke="yellow">
      <circle r="15" clip-path="url(#clipPath2)" cx="367" cy="124" stroke="none"/>
    </g>
    <g text-rendering="geometricPrecision" stroke-miterlimit="1.45" shape-rendering="geometricPrecision" font-family="sans-serif" transform="matrix(1,0,0,1,12,-34)" stroke-linecap="butt">
      <text x="388" xml:space="preserve" y="121.1699" clip-path="url(#clipPath2)" stroke="none">Package</text>
      <text x="388" xml:space="preserve" y="135.1387" clip-path="url(#clipPath2)" stroke="none">apache2</text>
      <circle fill="none" r="15" clip-path="url(#clipPath2)" cx="367" cy="124"/>
    </g>
    <g fill="yellow" text-rendering="geometricPrecision" shape-rendering="geometricPrecision" transform="matrix(1,0,0,1,12,-34)" stroke="yellow">
      <circle r="15" clip-path="url(#clipPath2)" cx="687" cy="123" stroke="none"/>
    </g>
    <g text-rendering="geometricPrecision" stroke-miterlimit="1.45" shape-rendering="geometricPrecision" font-family="sans-serif" transform="matrix(1,0,0,1,12,-34)" stroke-linecap="butt">
      <text x="708" xml:space="preserve" y="120.1699" clip-path="url(#clipPath2)" stroke="none">Package</text>
      <text x="708" xml:space="preserve" y="134.1387" clip-path="url(#clipPath2)" stroke="none">open-jdk-8</text>
      <circle fill="none" r="15" clip-path="url(#clipPath2)" cx="687" cy="123"/>
    </g>
    <g fill="aqua" text-rendering="geometricPrecision" shape-rendering="geometricPrecision" transform="matrix(1,0,0,1,12,-34)" stroke="aqua">
      <circle r="15" clip-path="url(#clipPath2)" cx="60" cy="185" stroke="none"/>
    </g>
    <g text-rendering="geometricPrecision" stroke-miterlimit="1.45" shape-rendering="geometricPrecision" font-family="sans-serif" transform="matrix(1,0,0,1,12,-34)" stroke-linecap="butt">
      <text x="81" xml:space="preserve" y="182.1699" clip-path="url(#clipPath2)" stroke="none">File</text>
      <text x="81" xml:space="preserve" y="196.1387" clip-path="url(#clipPath2)" stroke="none">/etc/default/varnish</text>
      <circle fill="none" r="15" clip-path="url(#clipPath2)" cx="60" cy="185"/>
    </g>
    <g fill="aqua" text-rendering="geometricPrecision" shape-rendering="geometricPrecision" transform="matrix(1,0,0,1,12,-34)" stroke="aqua">
      <circle r="15" clip-path="url(#clipPath2)" cx="37" cy="227" stroke="none"/>
    </g>
    <g text-rendering="geometricPrecision" stroke-miterlimit="1.45" shape-rendering="geometricPrecision" font-family="sans-serif" transform="matrix(1,0,0,1,12,-34)" stroke-linecap="butt">
      <text x="58" xml:space="preserve" y="224.1699" clip-path="url(#clipPath2)" stroke="none">File</text>
      <text x="58" xml:space="preserve" y="238.1387" clip-path="url(#clipPath2)" stroke="none">default.vcl</text>
      <circle fill="none" r="15" clip-path="url(#clipPath2)" cx="37" cy="227"/>
    </g>
    <g fill="aqua" text-rendering="geometricPrecision" shape-rendering="geometricPrecision" transform="matrix(1,0,0,1,12,-34)" stroke="aqua">
      <circle r="15" clip-path="url(#clipPath2)" cx="397" cy="184" stroke="none"/>
    </g>
    <g text-rendering="geometricPrecision" stroke-miterlimit="1.45" shape-rendering="geometricPrecision" font-family="sans-serif" transform="matrix(1,0,0,1,12,-34)" stroke-linecap="butt">
      <text x="418" xml:space="preserve" y="181.1699" clip-path="url(#clipPath2)" stroke="none">File</text>
      <text x="418" xml:space="preserve" y="195.1387" clip-path="url(#clipPath2)" stroke="none">httpd.conf</text>
      <circle fill="none" r="15" clip-path="url(#clipPath2)" cx="397" cy="184"/>
    </g>
    <g fill="aqua" text-rendering="geometricPrecision" shape-rendering="geometricPrecision" transform="matrix(1,0,0,1,12,-34)" stroke="aqua">
      <circle r="15" clip-path="url(#clipPath2)" cx="687" cy="183" stroke="none"/>
    </g>
    <g text-rendering="geometricPrecision" stroke-miterlimit="1.45" shape-rendering="geometricPrecision" font-family="sans-serif" transform="matrix(1,0,0,1,12,-34)" stroke-linecap="butt">
      <text x="708" xml:space="preserve" y="180.1699" clip-path="url(#clipPath2)" stroke="none">File</text>
      <text x="708" xml:space="preserve" y="194.1387" clip-path="url(#clipPath2)" stroke="none">jce.zip</text>
      <circle fill="none" r="15" clip-path="url(#clipPath2)" cx="687" cy="183"/>
    </g>
    <g fill="red" text-rendering="geometricPrecision" shape-rendering="geometricPrecision" transform="matrix(1,0,0,1,12,-34)" stroke="red">
      <circle r="15" clip-path="url(#clipPath2)" cx="687" cy="243" stroke="none"/>
    </g>
    <g text-rendering="geometricPrecision" stroke-miterlimit="1.45" shape-rendering="geometricPrecision" font-family="sans-serif" transform="matrix(1,0,0,1,12,-34)" stroke-linecap="butt">
      <text x="708" xml:space="preserve" y="240.1699" clip-path="url(#clipPath2)" stroke="none">Exec</text>
      <text x="708" xml:space="preserve" y="254.1387" clip-path="url(#clipPath2)" stroke="none">unzip jce.zip</text>
      <circle fill="none" r="15" clip-path="url(#clipPath2)" cx="687" cy="243"/>
    </g>
    <g fill="rgb(153,204,0)" text-rendering="geometricPrecision" shape-rendering="geometricPrecision" transform="matrix(1,0,0,1,12,-34)" stroke="rgb(153,204,0)">
      <circle r="15" clip-path="url(#clipPath2)" cx="37" cy="311" stroke="none"/>
    </g>
    <g text-rendering="geometricPrecision" stroke-miterlimit="1.45" shape-rendering="geometricPrecision" font-family="sans-serif" transform="matrix(1,0,0,1,12,-34)" stroke-linecap="butt">
      <text x="58" xml:space="preserve" y="308.1699" clip-path="url(#clipPath2)" stroke="none">Service</text>
      <text x="58" xml:space="preserve" y="322.1387" clip-path="url(#clipPath2)" stroke="none">varnish</text>
      <circle fill="none" r="15" clip-path="url(#clipPath2)" cx="37" cy="311"/>
    </g>
    <g fill="rgb(153,204,0)" text-rendering="geometricPrecision" shape-rendering="geometricPrecision" transform="matrix(1,0,0,1,12,-34)" stroke="rgb(153,204,0)">
      <circle r="15" clip-path="url(#clipPath2)" cx="367" cy="309" stroke="none"/>
    </g>
    <g text-rendering="geometricPrecision" stroke-miterlimit="1.45" shape-rendering="geometricPrecision" font-family="sans-serif" transform="matrix(1,0,0,1,12,-34)" stroke-linecap="butt">
      <text x="388" xml:space="preserve" y="306.1699" clip-path="url(#clipPath2)" stroke="none">Service</text>
      <text x="388" xml:space="preserve" y="320.1387" clip-path="url(#clipPath2)" stroke="none">apache2</text>
      <circle fill="none" r="15" clip-path="url(#clipPath2)" cx="367" cy="309"/>
    </g>
    <g fill="rgb(255,153,204)" text-rendering="geometricPrecision" shape-rendering="geometricPrecision" transform="matrix(1,0,0,1,12,-34)" stroke="rgb(255,153,204)">
      <circle r="15" clip-path="url(#clipPath2)" cx="367" cy="225" stroke="none"/>
    </g>
    <g text-rendering="geometricPrecision" stroke-miterlimit="1.45" shape-rendering="geometricPrecision" font-family="sans-serif" transform="matrix(1,0,0,1,12,-34)" stroke-linecap="butt">
      <text x="388" xml:space="preserve" y="222.1699" clip-path="url(#clipPath2)" stroke="none">vhost</text>
      <text x="388" xml:space="preserve" y="236.1387" clip-path="url(#clipPath2)" stroke="none">corporate</text>
      <circle fill="none" r="15" clip-path="url(#clipPath2)" cx="367" cy="225"/>
    </g>
    <g fill="rgb(255,153,204)" text-rendering="geometricPrecision" shape-rendering="geometricPrecision" transform="matrix(1,0,0,1,12,-34)" stroke="rgb(255,153,204)">
      <circle r="15" clip-path="url(#clipPath2)" cx="397" cy="267" stroke="none"/>
    </g>
    <g text-rendering="geometricPrecision" stroke-miterlimit="1.45" shape-rendering="geometricPrecision" font-family="sans-serif" transform="matrix(1,0,0,1,12,-34)" stroke-linecap="butt">
      <text x="418" xml:space="preserve" y="264.1699" clip-path="url(#clipPath2)" stroke="none">vhost</text>
      <text x="418" xml:space="preserve" y="278.1387" clip-path="url(#clipPath2)" stroke="none">ads</text>
      <circle fill="none" r="15" clip-path="url(#clipPath2)" cx="397" cy="267"/>
    </g>
  </g>
</svg>
