<?xml version="1.0" encoding="UTF-8"?><svg xmlns="http://www.w3.org/2000/svg" xmlns:xlink="http://www.w3.org/1999/xlink" fill-opacity="1" color-rendering="auto" color-interpolation="auto" text-rendering="auto" stroke="black" stroke-linecap="square" width="590" stroke-miterlimit="10" shape-rendering="auto" stroke-opacity="1" fill="black" stroke-dasharray="none" font-weight="normal" stroke-width="1" height="327" font-family="'Dialog'" font-style="normal" stroke-linejoin="miter" font-size="12px" stroke-dashoffset="0" image-rendering="auto">
  <!--Generated by ySVG 2.5-->
  <defs id="genericDefs"/>
  <g>
    <defs id="defs1">
      <clipPath clipPathUnits="userSpaceOnUse" id="clipPath1">
        <path d="M0 0 L590 0 L590 327 L0 327 L0 0 Z"/>
      </clipPath>
      <clipPath clipPathUnits="userSpaceOnUse" id="clipPath2">
        <path d="M128 112 L718 112 L718 439 L128 439 L128 112 Z"/>
      </clipPath>
    </defs>
    <g fill="white" text-rendering="geometricPrecision" shape-rendering="geometricPrecision" transform="translate(-128,-112)" stroke="white">
      <rect x="128" width="590" height="327" y="112" clip-path="url(#clipPath2)" stroke="none"/>
    </g>
    <g fill="rgb(255,153,204)" text-rendering="geometricPrecision" shape-rendering="geometricPrecision" transform="matrix(1,0,0,1,-128,-112)" stroke="rgb(255,153,204)">
      <rect x="401.5" y="147" clip-path="url(#clipPath2)" width="43" rx="4" ry="4" height="30" stroke="none"/>
    </g>
    <g text-rendering="geometricPrecision" stroke-miterlimit="1.45" shape-rendering="geometricPrecision" transform="matrix(1,0,0,1,-128,-112)" stroke-linecap="butt">
      <rect x="401.5" y="147" clip-path="url(#clipPath2)" fill="none" width="43" rx="4" ry="4" height="30"/>
      <text x="416.3496" xml:space="preserve" y="166.5352" clip-path="url(#clipPath2)" font-family="sans-serif" stroke="none">LB</text>
    </g>
    <g fill="rgb(153,204,0)" text-rendering="geometricPrecision" shape-rendering="geometricPrecision" transform="matrix(1,0,0,1,-128,-112)" stroke="rgb(153,204,0)">
      <rect x="371" y="394" clip-path="url(#clipPath2)" width="104" rx="4" ry="4" height="30" stroke="none"/>
    </g>
    <g text-rendering="geometricPrecision" stroke-miterlimit="1.45" shape-rendering="geometricPrecision" transform="matrix(1,0,0,1,-128,-112)" stroke-linecap="butt">
      <rect x="371" y="394" clip-path="url(#clipPath2)" fill="none" width="104" rx="4" ry="4" height="30"/>
      <text x="401.4902" xml:space="preserve" y="413.5352" clip-path="url(#clipPath2)" font-family="sans-serif" stroke="none">Ansible</text>
    </g>
    <g fill="rgb(153,153,153)" text-rendering="geometricPrecision" shape-rendering="geometricPrecision" transform="matrix(1,0,0,1,-128,-112)" stroke="rgb(153,153,153)">
      <rect x="216" y="335" clip-path="url(#clipPath2)" width="70" rx="4" ry="4" height="60" stroke="none"/>
    </g>
    <g text-rendering="geometricPrecision" stroke-miterlimit="1.45" shape-rendering="geometricPrecision" transform="matrix(1,0,0,1,-128,-112)" stroke-linecap="butt">
      <rect x="216" y="335" clip-path="url(#clipPath2)" fill="none" width="70" rx="4" ry="4" height="60"/>
      <text x="220.127" xml:space="preserve" y="362.4688" clip-path="url(#clipPath2)" font-family="sans-serif" stroke="none">OpenStack</text>
      <text x="241.8154" xml:space="preserve" y="376.6016" clip-path="url(#clipPath2)" font-family="sans-serif" stroke="none">API</text>
    </g>
    <g fill="rgb(255,204,0)" text-rendering="geometricPrecision" shape-rendering="geometricPrecision" transform="matrix(1,0,0,1,-128,-112)" stroke="rgb(255,204,0)">
      <rect x="186" y="216" clip-path="url(#clipPath2)" width="70" rx="4" ry="4" height="60" stroke="none"/>
    </g>
    <g text-rendering="geometricPrecision" stroke-miterlimit="1.45" shape-rendering="geometricPrecision" transform="matrix(1,0,0,1,-128,-112)" stroke-linecap="butt">
      <rect x="186" y="216" clip-path="url(#clipPath2)" fill="none" width="70" rx="4" ry="4" height="60"/>
      <text x="195.9043" y="250.5352" clip-path="url(#clipPath2)" fill="rgb(51,153,102)" font-family="sans-serif" stroke="none" xml:space="preserve">WAS v42</text>
    </g>
    <g fill="rgb(255,204,0)" text-rendering="geometricPrecision" shape-rendering="geometricPrecision" transform="matrix(1,0,0,1,-128,-112)" stroke="rgb(255,204,0)">
      <rect x="286" y="245" clip-path="url(#clipPath2)" width="70" rx="4" ry="4" height="60" stroke="none"/>
    </g>
    <g text-rendering="geometricPrecision" stroke-miterlimit="1.45" shape-rendering="geometricPrecision" transform="matrix(1,0,0,1,-128,-112)" stroke-linecap="butt">
      <rect x="286" y="245" clip-path="url(#clipPath2)" fill="none" width="70" rx="4" ry="4" height="60"/>
      <text x="295.9043" y="279.5352" clip-path="url(#clipPath2)" fill="rgb(51,153,102)" font-family="sans-serif" stroke="none" xml:space="preserve">WAS v42</text>
    </g>
    <g fill="rgb(255,204,0)" text-rendering="geometricPrecision" shape-rendering="geometricPrecision" transform="matrix(1,0,0,1,-128,-112)" stroke="rgb(255,204,0)">
      <rect x="584" y="216" clip-path="url(#clipPath2)" width="70" rx="4" ry="4" height="60" stroke="none"/>
    </g>
    <g text-rendering="geometricPrecision" stroke-miterlimit="1.45" shape-rendering="geometricPrecision" transform="matrix(1,0,0,1,-128,-112)" stroke-linecap="butt">
      <rect x="584" y="216" clip-path="url(#clipPath2)" fill="none" width="70" rx="4" ry="4" height="60"/>
      <text x="593.9043" y="250.5352" clip-path="url(#clipPath2)" fill="rgb(51,102,255)" font-family="sans-serif" stroke="none" xml:space="preserve">WAS v43</text>
    </g>
    <g fill="rgb(255,204,0)" text-rendering="geometricPrecision" shape-rendering="geometricPrecision" transform="matrix(1,0,0,1,-128,-112)" stroke="rgb(255,204,0)">
      <rect x="484" y="245" clip-path="url(#clipPath2)" width="70" rx="4" ry="4" height="60" stroke="none"/>
    </g>
    <g text-rendering="geometricPrecision" stroke-miterlimit="1.45" shape-rendering="geometricPrecision" transform="matrix(1,0,0,1,-128,-112)" stroke-linecap="butt">
      <rect x="484" y="245" clip-path="url(#clipPath2)" fill="none" width="70" rx="4" ry="4" height="60"/>
      <text x="493.9043" y="279.5352" clip-path="url(#clipPath2)" fill="rgb(51,102,255)" font-family="sans-serif" stroke="none" xml:space="preserve">WAS v43</text>
    </g>
    <g fill="white" text-rendering="geometricPrecision" shape-rendering="geometricPrecision" transform="matrix(1,0,0,1,-128,-112)" stroke="white">
      <rect x="599" y="127" clip-path="url(#clipPath2)" width="104" rx="4" ry="4" height="60" stroke="none"/>
    </g>
    <g text-rendering="geometricPrecision" stroke-miterlimit="1.45" shape-rendering="geometricPrecision" transform="matrix(1,0,0,1,-128,-112)" stroke-linecap="butt">
      <path fill="none" d="M423 394.0148 L423 184.9824" clip-path="url(#clipPath2)"/>
      <path d="M423 176.9824 L418 188.9824 L423 185.9824 L428 188.9824 Z" clip-path="url(#clipPath2)" stroke="none"/>
      <text x="436.5732" xml:space="preserve" y="290.0352" clip-path="url(#clipPath2)" font-family="sans-serif" stroke="none">done!</text>
      <path fill="none" d="M255.99 231.4497 L401.5121 170.9355" clip-path="url(#clipPath2)"/>
      <path fill="none" d="M409.478 176.9802 L348.0662 245.015" clip-path="url(#clipPath2)"/>
      <path fill="none" stroke-dasharray="12,4" d="M444.5093 171.2183 L584.0251 231.0108" stroke-width="2" clip-path="url(#clipPath2)"/>
      <path fill="none" stroke-dasharray="12,4" d="M435.7266 176.9802 L493.526 245.015" stroke-width="2" clip-path="url(#clipPath2)"/>
    </g>
  </g>
</svg>
