<?xml version="1.0" encoding="UTF-8"?><svg xmlns="http://www.w3.org/2000/svg" xmlns:xlink="http://www.w3.org/1999/xlink" fill-opacity="1" color-rendering="auto" color-interpolation="auto" text-rendering="auto" stroke="black" stroke-linecap="square" width="590" stroke-miterlimit="10" shape-rendering="auto" stroke-opacity="1" fill="black" stroke-dasharray="none" font-weight="normal" stroke-width="1" height="327" font-family="'Dialog'" font-style="normal" stroke-linejoin="miter" font-size="12px" stroke-dashoffset="0" image-rendering="auto">
  <!--Generated by ySVG 2.5-->
  <defs id="genericDefs"/>
  <g>
    <defs id="defs1">
      <clipPath clipPathUnits="userSpaceOnUse" id="clipPath1">
        <path d="M0 0 L590 0 L590 327 L0 327 L0 0 Z"/>
      </clipPath>
      <clipPath clipPathUnits="userSpaceOnUse" id="clipPath2">
        <path d="M128 112 L718 112 L718 439 L128 439 L128 112 Z"/>
      </clipPath>
    </defs>
    <g fill="white" text-rendering="geometricPrecision" shape-rendering="geometricPrecision" transform="translate(-128,-112)" stroke="white">
      <rect x="128" width="590" height="327" y="112" clip-path="url(#clipPath2)" stroke="none"/>
    </g>
    <g fill="rgb(255,153,204)" text-rendering="geometricPrecision" shape-rendering="geometricPrecision" transform="matrix(1,0,0,1,-128,-112)" stroke="rgb(255,153,204)">
      <rect x="401.5" y="147" clip-path="url(#clipPath2)" width="43" rx="4" ry="4" height="30" stroke="none"/>
    </g>
    <g text-rendering="geometricPrecision" stroke-miterlimit="1.45" shape-rendering="geometricPrecision" transform="matrix(1,0,0,1,-128,-112)" stroke-linecap="butt">
      <rect x="401.5" y="147" clip-path="url(#clipPath2)" fill="none" width="43" rx="4" ry="4" height="30"/>
      <text x="416.3496" xml:space="preserve" y="166.5352" clip-path="url(#clipPath2)" font-family="sans-serif" stroke="none">LB</text>
    </g>
    <g fill="rgb(153,204,0)" text-rendering="geometricPrecision" shape-rendering="geometricPrecision" transform="matrix(1,0,0,1,-128,-112)" stroke="rgb(153,204,0)">
      <rect x="371" y="394" clip-path="url(#clipPath2)" width="104" rx="4" ry="4" height="30" stroke="none"/>
    </g>
    <g text-rendering="geometricPrecision" stroke-miterlimit="1.45" shape-rendering="geometricPrecision" transform="matrix(1,0,0,1,-128,-112)" stroke-linecap="butt">
      <rect x="371" y="394" clip-path="url(#clipPath2)" fill="none" width="104" rx="4" ry="4" height="30"/>
      <text x="401.4902" xml:space="preserve" y="413.5352" clip-path="url(#clipPath2)" font-family="sans-serif" stroke="none">Ansible</text>
    </g>
    <g fill="rgb(153,153,153)" text-rendering="geometricPrecision" shape-rendering="geometricPrecision" transform="matrix(1,0,0,1,-128,-112)" stroke="rgb(153,153,153)">
      <rect x="216" y="335" clip-path="url(#clipPath2)" width="70" rx="4" ry="4" height="60" stroke="none"/>
    </g>
    <g text-rendering="geometricPrecision" stroke-miterlimit="1.45" shape-rendering="geometricPrecision" transform="matrix(1,0,0,1,-128,-112)" stroke-linecap="butt">
      <rect x="216" y="335" clip-path="url(#clipPath2)" fill="none" width="70" rx="4" ry="4" height="60"/>
      <text x="220.127" xml:space="preserve" y="362.4688" clip-path="url(#clipPath2)" font-family="sans-serif" stroke="none">OpenStack</text>
      <text x="241.8154" xml:space="preserve" y="376.6016" clip-path="url(#clipPath2)" font-family="sans-serif" stroke="none">API</text>
    </g>
    <g fill="rgb(255,204,0)" text-rendering="geometricPrecision" shape-rendering="geometricPrecision" transform="matrix(1,0,0,1,-128,-112)" stroke="rgb(255,204,0)">
      <rect x="186" y="216" clip-path="url(#clipPath2)" width="70" rx="4" ry="4" height="60" stroke="none"/>
    </g>
    <g text-rendering="geometricPrecision" stroke-miterlimit="1.45" shape-rendering="geometricPrecision" transform="matrix(1,0,0,1,-128,-112)" stroke-linecap="butt">
      <rect x="186" y="216" clip-path="url(#clipPath2)" fill="none" width="70" rx="4" ry="4" height="60"/>
      <text x="195.9043" y="250.5352" clip-path="url(#clipPath2)" fill="rgb(51,153,102)" font-family="sans-serif" stroke="none" xml:space="preserve">WAS v42</text>
    </g>
    <g fill="rgb(255,204,0)" text-rendering="geometricPrecision" shape-rendering="geometricPrecision" transform="matrix(1,0,0,1,-128,-112)" stroke="rgb(255,204,0)">
      <rect x="286" y="245" clip-path="url(#clipPath2)" width="70" rx="4" ry="4" height="60" stroke="none"/>
    </g>
    <g text-rendering="geometricPrecision" stroke-miterlimit="1.45" shape-rendering="geometricPrecision" transform="matrix(1,0,0,1,-128,-112)" stroke-linecap="butt">
      <rect x="286" y="245" clip-path="url(#clipPath2)" fill="none" width="70" rx="4" ry="4" height="60"/>
      <text x="295.9043" y="279.5352" clip-path="url(#clipPath2)" fill="rgb(51,153,102)" font-family="sans-serif" stroke="none" xml:space="preserve">WAS v42</text>
    </g>
    <g fill="rgb(255,204,0)" text-rendering="geometricPrecision" shape-rendering="geometricPrecision" transform="matrix(1,0,0,1,-128,-112)" stroke="rgb(255,204,0)">
      <rect x="584" y="216" clip-path="url(#clipPath2)" width="70" rx="4" ry="4" height="60" stroke="none"/>
    </g>
    <g text-rendering="geometricPrecision" stroke-miterlimit="1.45" shape-rendering="geometricPrecision" transform="matrix(1,0,0,1,-128,-112)" stroke-linecap="butt">
      <rect x="584" y="216" clip-path="url(#clipPath2)" fill="none" width="70" rx="4" ry="4" height="60"/>
      <text x="597.6982" xml:space="preserve" y="250.5352" clip-path="url(#clipPath2)" font-family="sans-serif" stroke="none">WAS v0</text>
    </g>
    <g fill="rgb(255,204,0)" text-rendering="geometricPrecision" shape-rendering="geometricPrecision" transform="matrix(1,0,0,1,-128,-112)" stroke="rgb(255,204,0)">
      <rect x="484" y="245" clip-path="url(#clipPath2)" width="70" rx="4" ry="4" height="60" stroke="none"/>
    </g>
    <g text-rendering="geometricPrecision" stroke-miterlimit="1.45" shape-rendering="geometricPrecision" transform="matrix(1,0,0,1,-128,-112)" stroke-linecap="butt">
      <rect x="484" y="245" clip-path="url(#clipPath2)" fill="none" width="70" rx="4" ry="4" height="60"/>
      <text x="497.6982" xml:space="preserve" y="279.5352" clip-path="url(#clipPath2)" font-family="sans-serif" stroke="none">WAS v0</text>
    </g>
    <g fill="white" text-rendering="geometricPrecision" shape-rendering="geometricPrecision" transform="matrix(1,0,0,1,-128,-112)" stroke="white">
      <rect x="599" y="127" clip-path="url(#clipPath2)" width="104" rx="4" ry="4" height="60" stroke="none"/>
    </g>
    <g text-rendering="geometricPrecision" stroke-miterlimit="1.45" shape-rendering="geometricPrecision" transform="matrix(1,0,0,1,-128,-112)" stroke-linecap="butt">
      <path fill="none" d="M370.9817 415.2394 L352.9145 414.3342 L331.0421 410.2899 L309.9145 403.3342 L292.9161 395.1057 L292.8322 395.0512" clip-path="url(#clipPath2)"/>
      <path d="M285.8777 391.097 L293.8381 401.3748 L293.7015 395.5454 L298.7808 392.6817 Z" clip-path="url(#clipPath2)" stroke="none"/>
      <text x="251.5563" xml:space="preserve" y="415.4491" clip-path="url(#clipPath2)" font-family="sans-serif" stroke="none">create!</text>
      <path fill="none" d="M255.99 231.4497 L401.5121 170.9355" clip-path="url(#clipPath2)"/>
      <path fill="none" d="M409.478 176.9802 L348.0662 245.015" clip-path="url(#clipPath2)"/>
    </g>
    <g stroke-linecap="round" transform="matrix(1,0,0,1,-128,-112)" stroke-dashoffset="2" text-rendering="geometricPrecision" shape-rendering="geometricPrecision" stroke-dasharray="0,8" stroke-width="2" stroke-miterlimit="1.45">
      <path fill="none" d="M285.9887 374.1518 L306.1228 378.3365 L332.7067 381.9821 L358.639 383.6126 L383.9197 383.228 L408.5488 380.8283 L432.5262 376.4135 L455.852 369.9835 L478.5262 361.5385 L500.5488 351.0783 L521.9197 338.603 L542.639 324.1126 L562.7067 307.6071 L582.1227 289.0865 L588.0178 282.635" clip-path="url(#clipPath2)"/>
      <path d="M594.0887 275.991 L580.8298 282.1627 L587.2589 283.4655 L589.1348 289.7514 Z" clip-path="url(#clipPath2)" stroke="none"/>
      <path fill="none" d="M286.0134 372.4576 L291.0808 373.3462 L310.4161 375.4197 L329.2814 376.0935 L347.6766 375.3676 L365.6017 373.2419 L383.0569 369.7165 L400.0419 364.7914 L416.5569 358.4665 L432.6017 350.7419 L448.1766 341.6176 L463.2814 331.0935 L477.9161 319.1697 L486.3531 311.2338 L486.4213 311.1606" clip-path="url(#clipPath2)"/>
      <path d="M492.9286 304.9433 L479.2818 310.202 L485.6078 311.9377 L487.0533 318.3363 Z" clip-path="url(#clipPath2)" stroke="none"/>
    </g>
  </g>
</svg>
