<?xml version="1.0" encoding="UTF-8"?><svg xmlns="http://www.w3.org/2000/svg" xmlns:xlink="http://www.w3.org/1999/xlink" fill-opacity="1" color-rendering="auto" color-interpolation="auto" text-rendering="auto" stroke="black" stroke-linecap="square" width="718" stroke-miterlimit="10" shape-rendering="auto" stroke-opacity="1" fill="black" stroke-dasharray="none" font-weight="normal" stroke-width="1" height="390" font-family="'Dialog'" font-style="normal" stroke-linejoin="miter" font-size="12px" stroke-dashoffset="0" image-rendering="auto">
  <!--Generated by ySVG 2.5-->
  <defs id="genericDefs"/>
  <g>
    <defs id="defs1">
      <clipPath clipPathUnits="userSpaceOnUse" id="clipPath1">
        <path d="M0 0 L718 0 L718 390 L0 390 L0 0 Z"/>
      </clipPath>
      <clipPath clipPathUnits="userSpaceOnUse" id="clipPath2">
        <path d="M27 89 L745 89 L745 479 L27 479 L27 89 Z"/>
      </clipPath>
    </defs>
    <g fill="white" text-rendering="geometricPrecision" shape-rendering="geometricPrecision" transform="translate(-27,-89)" stroke="white">
      <rect x="27" width="718" height="390" y="89" clip-path="url(#clipPath2)" stroke="none"/>
    </g>
    <g fill="rgb(255,153,204)" text-rendering="geometricPrecision" shape-rendering="geometricPrecision" transform="matrix(1,0,0,1,-27,-89)" stroke="rgb(255,153,204)">
      <rect x="673.5" y="128" clip-path="url(#clipPath2)" width="43" rx="4" ry="4" height="30" stroke="none"/>
    </g>
    <g text-rendering="geometricPrecision" stroke-miterlimit="1.45" shape-rendering="geometricPrecision" transform="matrix(1,0,0,1,-27,-89)" stroke-linecap="butt">
      <rect x="673.5" y="128" clip-path="url(#clipPath2)" fill="none" width="43" rx="4" ry="4" height="30"/>
      <text x="688.3496" xml:space="preserve" y="147.5352" clip-path="url(#clipPath2)" font-family="sans-serif" stroke="none">LB</text>
    </g>
    <g fill="rgb(255,204,0)" text-rendering="geometricPrecision" shape-rendering="geometricPrecision" transform="matrix(1,0,0,1,-27,-89)" stroke="rgb(255,204,0)">
      <rect x="660" y="379" clip-path="url(#clipPath2)" width="70" rx="4" ry="4" height="60" stroke="none"/>
    </g>
    <g text-rendering="geometricPrecision" stroke-miterlimit="1.45" shape-rendering="geometricPrecision" transform="matrix(1,0,0,1,-27,-89)" stroke-linecap="butt">
      <rect x="660" y="379" clip-path="url(#clipPath2)" fill="none" width="70" rx="4" ry="4" height="60"/>
      <text x="682.4961" xml:space="preserve" y="413.5352" clip-path="url(#clipPath2)" font-family="sans-serif" stroke="none">WAS</text>
      <rect x="42.5" y="104" clip-path="url(#clipPath2)" fill="none" width="386" stroke-dasharray="6,2" rx="4" ry="4" height="360"/>
      <text x="48.5" xml:space="preserve" y="121.6016" clip-path="url(#clipPath2)" font-family="sans-serif" stroke="none">Jenkins Worker</text>
    </g>
    <g fill="rgb(153,204,0)" text-rendering="geometricPrecision" shape-rendering="geometricPrecision" transform="matrix(1,0,0,1,-27,-89)" stroke="rgb(153,204,0)">
      <rect x="245" y="251" clip-path="url(#clipPath2)" width="104" rx="4" ry="4" height="30" stroke="none"/>
    </g>
    <g text-rendering="geometricPrecision" stroke-miterlimit="1.45" shape-rendering="geometricPrecision" transform="matrix(1,0,0,1,-27,-89)" stroke-linecap="butt">
      <rect x="245" y="251" clip-path="url(#clipPath2)" fill="none" width="104" rx="4" ry="4" height="30"/>
      <text x="275.4902" xml:space="preserve" y="270.5352" clip-path="url(#clipPath2)" font-family="sans-serif" stroke="none">Ansible</text>
    </g>
    <g fill="rgb(255,102,0)" text-rendering="geometricPrecision" shape-rendering="geometricPrecision" transform="matrix(1,0,0,1,-27,-89)" stroke="rgb(255,102,0)">
      <rect x="67" y="251" clip-path="url(#clipPath2)" width="148" rx="4" ry="4" height="30" stroke="none"/>
    </g>
    <g text-rendering="geometricPrecision" stroke-miterlimit="1.45" shape-rendering="geometricPrecision" transform="matrix(1,0,0,1,-27,-89)" stroke-linecap="butt">
      <rect x="67" y="251" clip-path="url(#clipPath2)" fill="none" width="148" rx="4" ry="4" height="30"/>
      <text x="98.3438" xml:space="preserve" y="270.5352" clip-path="url(#clipPath2)" font-family="sans-serif" stroke="none">Compiler Suite</text>
    </g>
    <g fill="silver" text-rendering="geometricPrecision" shape-rendering="geometricPrecision" transform="matrix(1,0,0,1,-27,-89)" stroke="silver">
      <rect x="81" y="311" clip-path="url(#clipPath2)" width="120" rx="4" ry="4" height="114" stroke="none"/>
    </g>
    <g text-rendering="geometricPrecision" stroke-miterlimit="1.45" shape-rendering="geometricPrecision" transform="matrix(1,0,0,1,-27,-89)" stroke-linecap="butt">
      <rect x="81" y="311" clip-path="url(#clipPath2)" fill="none" width="120" rx="4" ry="4" height="114"/>
      <text x="115.8984" xml:space="preserve" y="372.5352" clip-path="url(#clipPath2)" font-family="sans-serif" stroke="none">Software</text>
    </g>
    <g fill="rgb(204,255,204)" text-rendering="geometricPrecision" shape-rendering="geometricPrecision" transform="matrix(1,0,0,1,-27,-89)" stroke="rgb(204,255,204)">
      <rect x="145" y="157" clip-path="url(#clipPath2)" width="70" rx="4" ry="4" height="43" stroke="none"/>
    </g>
    <g text-rendering="geometricPrecision" stroke-miterlimit="1.45" shape-rendering="geometricPrecision" transform="matrix(1,0,0,1,-27,-89)" stroke-linecap="butt">
      <rect x="145" y="157" clip-path="url(#clipPath2)" fill="none" width="70" rx="4" ry="4" height="43"/>
      <text x="154.8223" xml:space="preserve" y="183.0352" clip-path="url(#clipPath2)" font-family="sans-serif" stroke="none">git clone</text>
      <rect x="275" y="136" clip-path="url(#clipPath2)" fill="none" width="88" stroke-dasharray="12,4" rx="4" ry="4" height="30" stroke-width="2"/>
      <text x="309.6719" xml:space="preserve" y="155.5352" clip-path="url(#clipPath2)" font-family="sans-serif" stroke="none">Job</text>
      <path fill="none" d="M346.9864 251.4962 L666.6859 158.7336" clip-path="url(#clipPath2)"/>
      <path d="M674.369 156.5043 L661.451 155.0463 L665.7255 159.0123 L664.2377 164.6502 Z" clip-path="url(#clipPath2)" stroke="none"/>
      <text x="465.8024" xml:space="preserve" y="228.3646" clip-path="url(#clipPath2)" font-family="sans-serif" stroke="none">install and configure</text>
      <text x="487.904" xml:space="preserve" y="242.4974" clip-path="url(#clipPath2)" font-family="sans-serif" stroke="none">HAproxy etc.</text>
    </g>
  </g>
</svg>
