<?xml version="1.0" encoding="UTF-8"?><svg xmlns="http://www.w3.org/2000/svg" xmlns:xlink="http://www.w3.org/1999/xlink" fill-opacity="1" color-rendering="auto" color-interpolation="auto" text-rendering="auto" stroke="black" stroke-linecap="square" width="732" stroke-miterlimit="10" shape-rendering="auto" stroke-opacity="1" fill="black" stroke-dasharray="none" font-weight="normal" stroke-width="1" height="532" font-family="'Dialog'" font-style="normal" stroke-linejoin="miter" font-size="12px" stroke-dashoffset="0" image-rendering="auto">
  <!--Generated by ySVG 2.5-->
  <defs id="genericDefs"/>
  <g>
    <defs id="defs1">
      <clipPath clipPathUnits="userSpaceOnUse" id="clipPath1">
        <path d="M0 0 L732 0 L732 532 L0 532 L0 0 Z"/>
      </clipPath>
      <clipPath clipPathUnits="userSpaceOnUse" id="clipPath2">
        <path d="M53 -60 L785 -60 L785 472 L53 472 L53 -60 Z"/>
      </clipPath>
    </defs>
    <g fill="white" text-rendering="geometricPrecision" shape-rendering="geometricPrecision" transform="translate(-53,60)" stroke="white">
      <rect x="53" width="732" height="532" y="-60" clip-path="url(#clipPath2)" stroke="none"/>
    </g>
    <g fill="rgb(255,153,204)" text-rendering="geometricPrecision" shape-rendering="geometricPrecision" transform="matrix(1,0,0,1,-53,60)" stroke="rgb(255,153,204)">
      <rect x="153" y="53" clip-path="url(#clipPath2)" width="43" rx="4" ry="4" height="30" stroke="none"/>
    </g>
    <g text-rendering="geometricPrecision" stroke-miterlimit="1.45" shape-rendering="geometricPrecision" transform="matrix(1,0,0,1,-53,60)" stroke-linecap="butt">
      <rect x="153" y="53" clip-path="url(#clipPath2)" fill="none" width="43" rx="4" ry="4" height="30"/>
      <text x="167.8496" xml:space="preserve" y="72.5352" clip-path="url(#clipPath2)" font-family="sans-serif" stroke="none">LB</text>
    </g>
    <g fill="rgb(255,153,204)" text-rendering="geometricPrecision" shape-rendering="geometricPrecision" transform="matrix(1,0,0,1,-53,60)" stroke="rgb(255,153,204)">
      <rect x="226" y="53" clip-path="url(#clipPath2)" width="43" rx="4" ry="4" height="30" stroke="none"/>
    </g>
    <g text-rendering="geometricPrecision" stroke-miterlimit="1.45" shape-rendering="geometricPrecision" transform="matrix(1,0,0,1,-53,60)" stroke-linecap="butt">
      <rect x="226" y="53" clip-path="url(#clipPath2)" fill="none" width="43" rx="4" ry="4" height="30"/>
      <text x="240.8496" xml:space="preserve" y="72.5352" clip-path="url(#clipPath2)" font-family="sans-serif" stroke="none">LB</text>
    </g>
    <g fill="rgb(255,153,204)" text-rendering="geometricPrecision" shape-rendering="geometricPrecision" transform="matrix(1,0,0,1,-53,60)" stroke="rgb(255,153,204)">
      <rect x="569" y="53" clip-path="url(#clipPath2)" width="43" rx="4" ry="4" height="30" stroke="none"/>
    </g>
    <g text-rendering="geometricPrecision" stroke-miterlimit="1.45" shape-rendering="geometricPrecision" transform="matrix(1,0,0,1,-53,60)" stroke-linecap="butt">
      <rect x="569" y="53" clip-path="url(#clipPath2)" fill="none" width="43" rx="4" ry="4" height="30"/>
      <text x="583.8496" xml:space="preserve" y="72.5352" clip-path="url(#clipPath2)" font-family="sans-serif" stroke="none">LB</text>
    </g>
    <g fill="rgb(255,153,204)" text-rendering="geometricPrecision" shape-rendering="geometricPrecision" transform="matrix(1,0,0,1,-53,60)" stroke="rgb(255,153,204)">
      <rect x="642" y="53" clip-path="url(#clipPath2)" width="43" rx="4" ry="4" height="30" stroke="none"/>
    </g>
    <g text-rendering="geometricPrecision" stroke-miterlimit="1.45" shape-rendering="geometricPrecision" transform="matrix(1,0,0,1,-53,60)" stroke-linecap="butt">
      <rect x="642" y="53" clip-path="url(#clipPath2)" fill="none" width="43" rx="4" ry="4" height="30"/>
      <text x="656.8496" xml:space="preserve" y="72.5352" clip-path="url(#clipPath2)" font-family="sans-serif" stroke="none">LB</text>
    </g>
    <g fill="rgb(255,204,0)" text-rendering="geometricPrecision" shape-rendering="geometricPrecision" transform="matrix(1,0,0,1,-53,60)" stroke="rgb(255,204,0)">
      <rect x="126" y="131" clip-path="url(#clipPath2)" width="70" rx="4" ry="4" height="60" stroke="none"/>
    </g>
    <g text-rendering="geometricPrecision" stroke-miterlimit="1.45" shape-rendering="geometricPrecision" transform="matrix(1,0,0,1,-53,60)" stroke-linecap="butt">
      <rect x="126" y="131" clip-path="url(#clipPath2)" fill="none" width="70" rx="4" ry="4" height="60"/>
      <text x="148.4961" xml:space="preserve" y="165.5352" clip-path="url(#clipPath2)" font-family="sans-serif" stroke="none">WAS</text>
    </g>
    <g fill="rgb(255,204,0)" text-rendering="geometricPrecision" shape-rendering="geometricPrecision" transform="matrix(1,0,0,1,-53,60)" stroke="rgb(255,204,0)">
      <rect x="226" y="131" clip-path="url(#clipPath2)" width="70" rx="4" ry="4" height="60" stroke="none"/>
    </g>
    <g text-rendering="geometricPrecision" stroke-miterlimit="1.45" shape-rendering="geometricPrecision" transform="matrix(1,0,0,1,-53,60)" stroke-linecap="butt">
      <rect x="226" y="131" clip-path="url(#clipPath2)" fill="none" width="70" rx="4" ry="4" height="60"/>
      <text x="248.4961" xml:space="preserve" y="165.5352" clip-path="url(#clipPath2)" font-family="sans-serif" stroke="none">WAS</text>
    </g>
    <g fill="rgb(255,204,0)" text-rendering="geometricPrecision" shape-rendering="geometricPrecision" transform="matrix(1,0,0,1,-53,60)" stroke="rgb(255,204,0)">
      <rect x="542" y="131" clip-path="url(#clipPath2)" width="70" rx="4" ry="4" height="60" stroke="none"/>
    </g>
    <g text-rendering="geometricPrecision" stroke-miterlimit="1.45" shape-rendering="geometricPrecision" transform="matrix(1,0,0,1,-53,60)" stroke-linecap="butt">
      <rect x="542" y="131" clip-path="url(#clipPath2)" fill="none" width="70" rx="4" ry="4" height="60"/>
      <text x="564.4961" xml:space="preserve" y="165.5352" clip-path="url(#clipPath2)" font-family="sans-serif" stroke="none">WAS</text>
    </g>
    <g fill="rgb(255,204,0)" text-rendering="geometricPrecision" shape-rendering="geometricPrecision" transform="matrix(1,0,0,1,-53,60)" stroke="rgb(255,204,0)">
      <rect x="642" y="131" clip-path="url(#clipPath2)" width="70" rx="4" ry="4" height="60" stroke="none"/>
    </g>
    <g text-rendering="geometricPrecision" stroke-miterlimit="1.45" shape-rendering="geometricPrecision" transform="matrix(1,0,0,1,-53,60)" stroke-linecap="butt">
      <rect x="642" y="131" clip-path="url(#clipPath2)" fill="none" width="70" rx="4" ry="4" height="60"/>
      <text x="664.4961" xml:space="preserve" y="165.5352" clip-path="url(#clipPath2)" font-family="sans-serif" stroke="none">WAS</text>
    </g>
    <g fill="rgb(153,204,0)" text-rendering="geometricPrecision" shape-rendering="geometricPrecision" transform="matrix(1,0,0,1,-53,60)" stroke="rgb(153,204,0)">
      <rect x="168.5" y="221" clip-path="url(#clipPath2)" width="85" rx="4" ry="4" height="30" stroke="none"/>
    </g>
    <g text-rendering="geometricPrecision" stroke-miterlimit="1.45" shape-rendering="geometricPrecision" transform="matrix(1,0,0,1,-53,60)" stroke-linecap="butt">
      <rect x="168.5" y="221" clip-path="url(#clipPath2)" fill="none" width="85" rx="4" ry="4" height="30"/>
      <text x="203.0547" xml:space="preserve" y="240.5352" clip-path="url(#clipPath2)" font-family="sans-serif" stroke="none">DB</text>
    </g>
    <g fill="rgb(153,204,0)" text-rendering="geometricPrecision" shape-rendering="geometricPrecision" transform="matrix(1,0,0,1,-53,60)" stroke="rgb(153,204,0)">
      <rect x="376.5" y="221" clip-path="url(#clipPath2)" width="85" rx="4" ry="4" height="30" stroke="none"/>
    </g>
    <g text-rendering="geometricPrecision" stroke-miterlimit="1.45" shape-rendering="geometricPrecision" transform="matrix(1,0,0,1,-53,60)" stroke-linecap="butt">
      <rect x="376.5" y="221" clip-path="url(#clipPath2)" fill="none" width="85" rx="4" ry="4" height="30"/>
      <text x="411.0547" xml:space="preserve" y="240.5352" clip-path="url(#clipPath2)" font-family="sans-serif" stroke="none">DB</text>
    </g>
    <g fill="rgb(153,204,0)" text-rendering="geometricPrecision" shape-rendering="geometricPrecision" transform="matrix(1,0,0,1,-53,60)" stroke="rgb(153,204,0)">
      <rect x="584.5" y="221" clip-path="url(#clipPath2)" width="85" rx="4" ry="4" height="30" stroke="none"/>
    </g>
    <g text-rendering="geometricPrecision" stroke-miterlimit="1.45" shape-rendering="geometricPrecision" transform="matrix(1,0,0,1,-53,60)" stroke-linecap="butt">
      <rect x="584.5" y="221" clip-path="url(#clipPath2)" fill="none" width="85" rx="4" ry="4" height="30"/>
      <text x="619.0547" xml:space="preserve" y="240.5352" clip-path="url(#clipPath2)" font-family="sans-serif" stroke="none">DB</text>
    </g>
    <g fill="rgb(204,255,255)" text-rendering="geometricPrecision" shape-rendering="geometricPrecision" transform="matrix(1,0,0,1,-53,60)" stroke="rgb(204,255,255)">
      <rect x="182.5" y="281" clip-path="url(#clipPath2)" width="57" rx="4" ry="4" height="30" stroke="none"/>
    </g>
    <g text-rendering="geometricPrecision" stroke-miterlimit="1.45" shape-rendering="geometricPrecision" transform="matrix(1,0,0,1,-53,60)" stroke-linecap="butt">
      <rect x="182.5" y="281" clip-path="url(#clipPath2)" fill="none" width="57" rx="4" ry="4" height="30"/>
      <text x="190.1055" xml:space="preserve" y="300.5352" clip-path="url(#clipPath2)" font-family="sans-serif" stroke="none">Gluster</text>
    </g>
    <g fill="rgb(204,255,255)" text-rendering="geometricPrecision" shape-rendering="geometricPrecision" transform="matrix(1,0,0,1,-53,60)" stroke="rgb(204,255,255)">
      <rect x="390.5" y="281" clip-path="url(#clipPath2)" width="57" rx="4" ry="4" height="30" stroke="none"/>
    </g>
    <g text-rendering="geometricPrecision" stroke-miterlimit="1.45" shape-rendering="geometricPrecision" transform="matrix(1,0,0,1,-53,60)" stroke-linecap="butt">
      <rect x="390.5" y="281" clip-path="url(#clipPath2)" fill="none" width="57" rx="4" ry="4" height="30"/>
      <text x="398.1055" xml:space="preserve" y="300.5352" clip-path="url(#clipPath2)" font-family="sans-serif" stroke="none">Gluster</text>
    </g>
    <g fill="rgb(204,255,255)" text-rendering="geometricPrecision" shape-rendering="geometricPrecision" transform="matrix(1,0,0,1,-53,60)" stroke="rgb(204,255,255)">
      <rect x="598.5" y="281" clip-path="url(#clipPath2)" width="57" rx="4" ry="4" height="30" stroke="none"/>
    </g>
    <g text-rendering="geometricPrecision" stroke-miterlimit="1.45" shape-rendering="geometricPrecision" transform="matrix(1,0,0,1,-53,60)" stroke-linecap="butt">
      <rect x="598.5" y="281" clip-path="url(#clipPath2)" fill="none" width="57" rx="4" ry="4" height="30"/>
      <text x="606.1055" xml:space="preserve" y="300.5352" clip-path="url(#clipPath2)" font-family="sans-serif" stroke="none">Gluster</text>
    </g>
    <g fill="rgb(204,153,255)" text-rendering="geometricPrecision" shape-rendering="geometricPrecision" transform="matrix(1,0,0,1,-53,60)" stroke="rgb(204,153,255)">
      <rect x="177" y="341" clip-path="url(#clipPath2)" width="70" rx="4" ry="4" height="30" stroke="none"/>
    </g>
    <g text-rendering="geometricPrecision" stroke-miterlimit="1.45" shape-rendering="geometricPrecision" transform="matrix(1,0,0,1,-53,60)" stroke-linecap="butt">
      <rect x="177" y="341" clip-path="url(#clipPath2)" fill="none" width="70" rx="4" ry="4" height="30"/>
      <text x="200.8936" xml:space="preserve" y="360.5352" clip-path="url(#clipPath2)" font-family="sans-serif" stroke="none">Solr</text>
    </g>
    <g fill="rgb(204,153,255)" text-rendering="geometricPrecision" shape-rendering="geometricPrecision" transform="matrix(1,0,0,1,-53,60)" stroke="rgb(204,153,255)">
      <rect x="384" y="341" clip-path="url(#clipPath2)" width="70" rx="4" ry="4" height="30" stroke="none"/>
    </g>
    <g text-rendering="geometricPrecision" stroke-miterlimit="1.45" shape-rendering="geometricPrecision" transform="matrix(1,0,0,1,-53,60)" stroke-linecap="butt">
      <rect x="384" y="341" clip-path="url(#clipPath2)" fill="none" width="70" rx="4" ry="4" height="30"/>
      <text x="407.8936" xml:space="preserve" y="360.5352" clip-path="url(#clipPath2)" font-family="sans-serif" stroke="none">Solr</text>
    </g>
    <g fill="rgb(204,153,255)" text-rendering="geometricPrecision" shape-rendering="geometricPrecision" transform="matrix(1,0,0,1,-53,60)" stroke="rgb(204,153,255)">
      <rect x="592" y="341" clip-path="url(#clipPath2)" width="70" rx="4" ry="4" height="30" stroke="none"/>
    </g>
    <g text-rendering="geometricPrecision" stroke-miterlimit="1.45" shape-rendering="geometricPrecision" transform="matrix(1,0,0,1,-53,60)" stroke-linecap="butt">
      <rect x="592" y="341" clip-path="url(#clipPath2)" fill="none" width="70" rx="4" ry="4" height="30"/>
      <text x="615.8936" xml:space="preserve" y="360.5352" clip-path="url(#clipPath2)" font-family="sans-serif" stroke="none">Solr</text>
      <rect x="68.5" y="-44" clip-path="url(#clipPath2)" fill="none" width="285" stroke-dasharray="6,2" rx="4" ry="4" height="501"/>
      <text x="74.5" xml:space="preserve" y="-26.3984" clip-path="url(#clipPath2)" font-family="sans-serif" stroke="none">Region 1</text>
      <rect x="484.5" y="-44.5" clip-path="url(#clipPath2)" fill="none" width="285" stroke-dasharray="6,2" rx="4" ry="4" height="501"/>
      <text x="490.5" xml:space="preserve" y="-26.8984" clip-path="url(#clipPath2)" font-family="sans-serif" stroke="none">Region 2</text>
    </g>
  </g>
</svg>
