<?xml version="1.0" encoding="UTF-8"?><svg xmlns="http://www.w3.org/2000/svg" xmlns:xlink="http://www.w3.org/1999/xlink" fill-opacity="1" color-rendering="auto" color-interpolation="auto" text-rendering="auto" stroke="black" stroke-linecap="square" width="349" stroke-miterlimit="10" shape-rendering="auto" stroke-opacity="1" fill="black" stroke-dasharray="none" font-weight="normal" stroke-width="1" height="312" font-family="'Dialog'" font-style="normal" stroke-linejoin="miter" font-size="12px" stroke-dashoffset="0" image-rendering="auto">
  <!--Generated by ySVG 2.5-->
  <defs id="genericDefs"/>
  <g>
    <defs id="defs1">
      <clipPath clipPathUnits="userSpaceOnUse" id="clipPath1">
        <path d="M0 0 L349 0 L349 312 L0 312 L0 0 Z"/>
      </clipPath>
      <clipPath clipPathUnits="userSpaceOnUse" id="clipPath2">
        <path d="M141 127 L490 127 L490 439 L141 439 L141 127 Z"/>
      </clipPath>
    </defs>
    <g fill="white" text-rendering="geometricPrecision" shape-rendering="geometricPrecision" transform="translate(-141,-127)" stroke="white">
      <rect x="141" width="349" height="312" y="127" clip-path="url(#clipPath2)" stroke="none"/>
    </g>
    <g fill="rgb(255,153,204)" text-rendering="geometricPrecision" shape-rendering="geometricPrecision" transform="matrix(1,0,0,1,-141,-127)" stroke="rgb(255,153,204)">
      <rect x="401.5" y="147" clip-path="url(#clipPath2)" width="43" rx="4" ry="4" height="30" stroke="none"/>
    </g>
    <g text-rendering="geometricPrecision" stroke-miterlimit="1.45" shape-rendering="geometricPrecision" transform="matrix(1,0,0,1,-141,-127)" stroke-linecap="butt">
      <rect x="401.5" y="147" clip-path="url(#clipPath2)" fill="none" width="43" rx="4" ry="4" height="30"/>
      <text x="416.3496" xml:space="preserve" y="166.5352" clip-path="url(#clipPath2)" font-family="sans-serif" stroke="none">LB</text>
    </g>
    <g fill="rgb(153,204,0)" text-rendering="geometricPrecision" shape-rendering="geometricPrecision" transform="matrix(1,0,0,1,-141,-127)" stroke="rgb(153,204,0)">
      <rect x="371" y="394" clip-path="url(#clipPath2)" width="104" rx="4" ry="4" height="30" stroke="none"/>
    </g>
    <g text-rendering="geometricPrecision" stroke-miterlimit="1.45" shape-rendering="geometricPrecision" transform="matrix(1,0,0,1,-141,-127)" stroke-linecap="butt">
      <rect x="371" y="394" clip-path="url(#clipPath2)" fill="none" width="104" rx="4" ry="4" height="30"/>
      <text x="401.4902" xml:space="preserve" y="413.5352" clip-path="url(#clipPath2)" font-family="sans-serif" stroke="none">Ansible</text>
    </g>
    <g fill="rgb(153,153,153)" text-rendering="geometricPrecision" shape-rendering="geometricPrecision" transform="matrix(1,0,0,1,-141,-127)" stroke="rgb(153,153,153)">
      <rect x="216" y="335" clip-path="url(#clipPath2)" width="70" rx="4" ry="4" height="60" stroke="none"/>
    </g>
    <g text-rendering="geometricPrecision" stroke-miterlimit="1.45" shape-rendering="geometricPrecision" transform="matrix(1,0,0,1,-141,-127)" stroke-linecap="butt">
      <rect x="216" y="335" clip-path="url(#clipPath2)" fill="none" width="70" rx="4" ry="4" height="60"/>
      <text x="220.127" xml:space="preserve" y="362.4688" clip-path="url(#clipPath2)" font-family="sans-serif" stroke="none">OpenStack</text>
      <text x="241.8154" xml:space="preserve" y="376.6016" clip-path="url(#clipPath2)" font-family="sans-serif" stroke="none">API</text>
    </g>
    <g fill="rgb(255,204,0)" text-rendering="geometricPrecision" shape-rendering="geometricPrecision" transform="matrix(1,0,0,1,-141,-127)" stroke="rgb(255,204,0)">
      <rect x="168" y="216" clip-path="url(#clipPath2)" width="70" rx="4" ry="4" height="60" stroke="none"/>
    </g>
    <g text-rendering="geometricPrecision" stroke-miterlimit="1.45" shape-rendering="geometricPrecision" transform="matrix(1,0,0,1,-141,-127)" stroke-linecap="butt">
      <rect x="168" y="216" clip-path="url(#clipPath2)" fill="none" width="70" rx="4" ry="4" height="60"/>
      <text x="177.9043" xml:space="preserve" y="250.5352" clip-path="url(#clipPath2)" font-family="sans-serif" stroke="none">WAS v29</text>
    </g>
    <g fill="rgb(255,204,0)" text-rendering="geometricPrecision" shape-rendering="geometricPrecision" transform="matrix(1,0,0,1,-141,-127)" stroke="rgb(255,204,0)">
      <rect x="286" y="245" clip-path="url(#clipPath2)" width="70" rx="4" ry="4" height="60" stroke="none"/>
    </g>
    <g text-rendering="geometricPrecision" stroke-miterlimit="1.45" shape-rendering="geometricPrecision" transform="matrix(1,0,0,1,-141,-127)" stroke-linecap="butt">
      <rect x="286" y="245" clip-path="url(#clipPath2)" fill="none" width="70" rx="4" ry="4" height="60"/>
      <text x="295.9043" xml:space="preserve" y="279.5352" clip-path="url(#clipPath2)" font-family="sans-serif" stroke="none">WAS v29</text>
      <path fill="none" d="M371.6436 395.8623 L293.7712 375.9415" clip-path="url(#clipPath2)"/>
      <path d="M286.0208 373.9588 L296.4073 381.7768 L294.74 376.1893 L298.8856 372.0888 Z" clip-path="url(#clipPath2)" stroke="none"/>
      <text x="334.4604" xml:space="preserve" y="371.1688" clip-path="url(#clipPath2)" font-family="sans-serif" stroke="none">decommission!</text>
    </g>
    <g stroke-linecap="round" transform="matrix(1,0,0,1,-141,-127)" stroke-dashoffset="2" text-rendering="geometricPrecision" shape-rendering="geometricPrecision" stroke-dasharray="0,8" stroke-width="2" stroke-miterlimit="1.45">
      <path fill="none" d="M238.8945 334.9885 L218.4776 284.3715" clip-path="url(#clipPath2)"/>
      <path d="M215.1109 276.0249 L214.9443 290.649 L218.8984 285.4148 L225.3775 286.4406 Z" clip-path="url(#clipPath2)" stroke="none"/>
      <path fill="none" d="M274.3276 335.0073 L292.1611 312.0785" clip-path="url(#clipPath2)"/>
      <path d="M297.6866 304.9744 L284.9583 312.1772 L291.4705 312.9666 L293.8385 319.084 Z" clip-path="url(#clipPath2)" stroke="none"/>
    </g>
  </g>
</svg>
