<?xml version="1.0" encoding="UTF-8"?><svg xmlns="http://www.w3.org/2000/svg" xmlns:xlink="http://www.w3.org/1999/xlink" fill-opacity="1" color-rendering="auto" color-interpolation="auto" stroke="black" text-rendering="auto" stroke-linecap="square" width="656" stroke-miterlimit="10" stroke-opacity="1" shape-rendering="auto" fill="black" stroke-dasharray="none" font-weight="normal" stroke-width="1" height="246" font-family="'Dialog'" font-style="normal" stroke-linejoin="miter" font-size="12px" stroke-dashoffset="0" image-rendering="auto">
  <!--Generated by ySVG 2.5-->
  <defs id="genericDefs"/>
  <g>
    <defs id="defs1">
      <clipPath clipPathUnits="userSpaceOnUse" id="clipPath1">
        <path d="M0 0 L656 0 L656 246 L0 246 L0 0 Z"/>
      </clipPath>
      <clipPath clipPathUnits="userSpaceOnUse" id="clipPath2">
        <path d="M82 33 L738 33 L738 279 L82 279 L82 33 Z"/>
      </clipPath>
    </defs>
    <g fill="white" text-rendering="geometricPrecision" shape-rendering="geometricPrecision" transform="translate(-82,-33)" stroke="white">
      <rect x="82" width="656" height="246" y="33" clip-path="url(#clipPath2)" stroke="none"/>
    </g>
    <g text-rendering="geometricPrecision" stroke-miterlimit="1.45" shape-rendering="geometricPrecision" transform="matrix(1,0,0,1,-82,-33)" stroke-linecap="butt">
      <path fill="none" d="M156.5 91.0322 L156.5 134.0115" clip-path="url(#clipPath2)"/>
      <path d="M156.5 142.0115 L161.5 130.0115 L156.5 133.0115 L151.5 130.0115 Z" clip-path="url(#clipPath2)" stroke="none"/>
      <path fill="none" d="M359.5198 101.998 L408.5125 88.8456" clip-path="url(#clipPath2)"/>
      <path d="M416.2389 86.7714 L403.3529 85.0537 L407.5467 89.1049 L405.9457 94.7118 Z" clip-path="url(#clipPath2)" stroke="none"/>
      <path fill="none" d="M199.7522 151.5423 L254.1457 133.5176" clip-path="url(#clipPath2)"/>
      <path d="M261.7396 131.0011 L248.776 130.0296 L253.1965 133.8321 L251.9215 139.522 Z" clip-path="url(#clipPath2)" stroke="none"/>
      <path fill="none" d="M454.5 104.7352 L454.5 143.3961" clip-path="url(#clipPath2)"/>
      <path d="M454.5 151.3961 L459.5 139.3961 L454.5 142.3961 L449.5 139.3961 Z" clip-path="url(#clipPath2)" stroke="none"/>
      <path fill="none" d="M512.7983 179.211 L536.1738 184.5583" clip-path="url(#clipPath2)"/>
      <path d="M543.9724 186.3423 L533.3895 178.7922 L535.199 184.3353 L531.1595 188.5404 Z" clip-path="url(#clipPath2)" stroke="none"/>
      <path fill="none" d="M543.974 240.6456 L532.8984 244.5825 L514.7812 249.8516 L496.6641 253.9497 L478.5469 256.877 L460.4297 258.6333 L442.3125 259.2188 L424.1953 258.6333 L406.0781 256.877 L387.9609 253.9497 L369.8438 249.8516 L351.7266 244.5825 L348.1889 243.325" clip-path="url(#clipPath2)"/>
      <path d="M340.651 240.6456 L350.2833 249.376 L349.1312 243.66 L353.6326 239.9536 Z" clip-path="url(#clipPath2)" stroke="none"/>
      <text x="126.627" font-size="14px" y="81.3467" clip-path="url(#clipPath2)" font-family="sans-serif" stroke="none" xml:space="preserve">Manifest</text>
      <rect x="97" y="62" clip-path="url(#clipPath2)" fill="none" width="119" rx="4" ry="4" height="29"/>
    </g>
    <g fill="rgb(153,204,255)" text-rendering="geometricPrecision" shape-rendering="geometricPrecision" transform="matrix(1,0,0,1,-82,-33)" stroke="rgb(153,204,255)">
      <rect x="113.25" y="142" clip-path="url(#clipPath2)" width="86.5" rx="4" ry="4" height="47.75" stroke="none"/>
    </g>
    <g font-size="14px" stroke-linecap="butt" transform="matrix(1,0,0,1,-82,-33)" text-rendering="geometricPrecision" font-family="sans-serif" shape-rendering="geometricPrecision" stroke-miterlimit="1.45">
      <text x="124.9932" xml:space="preserve" y="170.7217" clip-path="url(#clipPath2)" stroke="none">Compiler</text>
      <rect x="113.25" y="142" clip-path="url(#clipPath2)" fill="none" width="86.5" rx="4" ry="4" height="47.75"/>
    </g>
    <g fill="rgb(204,255,204)" text-rendering="geometricPrecision" shape-rendering="geometricPrecision" transform="matrix(1,0,0,1,-82,-33)" stroke="rgb(204,255,204)">
      <rect x="416.25" y="48.25" clip-path="url(#clipPath2)" width="76.5" rx="4" ry="4" height="56.5" stroke="none"/>
    </g>
    <g font-size="14px" stroke-linecap="butt" transform="matrix(1,0,0,1,-82,-33)" text-rendering="geometricPrecision" font-family="sans-serif" shape-rendering="geometricPrecision" stroke-miterlimit="1.45">
      <text x="420.8022" xml:space="preserve" y="81.3467" clip-path="url(#clipPath2)" stroke="none">Prioritizer</text>
      <rect x="416.25" y="48.25" clip-path="url(#clipPath2)" fill="none" width="76.5" rx="4" ry="4" height="56.5"/>
    </g>
    <g fill="silver" text-rendering="geometricPrecision" shape-rendering="geometricPrecision" transform="matrix(1,0,0,1,-82,-33)" stroke="silver">
      <rect x="246" y="102" clip-path="url(#clipPath2)" width="119" rx="4" ry="4" height="29" stroke="none"/>
    </g>
    <g font-size="14px" stroke-linecap="butt" transform="matrix(1,0,0,1,-82,-33)" text-rendering="geometricPrecision" font-family="sans-serif" shape-rendering="geometricPrecision" stroke-miterlimit="1.45">
      <text x="278.6177" xml:space="preserve" y="121.3467" clip-path="url(#clipPath2)" stroke="none">Catalog</text>
      <rect x="246" y="102" clip-path="url(#clipPath2)" fill="none" width="119" rx="4" ry="4" height="29"/>
    </g>
    <g fill="silver" text-rendering="geometricPrecision" shape-rendering="geometricPrecision" transform="matrix(1,0,0,1,-82,-33)" stroke="silver">
      <rect x="395" y="151.375" clip-path="url(#clipPath2)" width="119" rx="4" ry="4" height="29" stroke="none"/>
    </g>
    <g font-size="14px" stroke-linecap="butt" transform="matrix(1,0,0,1,-82,-33)" text-rendering="geometricPrecision" font-family="sans-serif" shape-rendering="geometricPrecision" stroke-miterlimit="1.45">
      <text x="433.0283" xml:space="preserve" y="170.7217" clip-path="url(#clipPath2)" stroke="none">Graph</text>
      <rect x="395" y="151.375" clip-path="url(#clipPath2)" fill="none" width="119" rx="4" ry="4" height="29"/>
    </g>
    <g fill="rgb(255,102,0)" text-rendering="geometricPrecision" shape-rendering="geometricPrecision" transform="matrix(1,0,0,1,-82,-33)" stroke="rgb(255,102,0)">
      <rect x="544" y="180.375" clip-path="url(#clipPath2)" width="86.5" rx="4" ry="4" height="82.75" stroke="none"/>
    </g>
    <g font-size="14px" stroke-linecap="butt" transform="matrix(1,0,0,1,-82,-33)" text-rendering="geometricPrecision" font-family="sans-serif" shape-rendering="geometricPrecision" stroke-miterlimit="1.45">
      <text x="551.5835" xml:space="preserve" y="226.5967" clip-path="url(#clipPath2)" stroke="none">Translator</text>
      <rect x="544" y="180.375" clip-path="url(#clipPath2)" fill="none" width="86.5" rx="4" ry="4" height="82.75"/>
    </g>
    <g fill="rgb(255,153,0)" text-rendering="geometricPrecision" shape-rendering="geometricPrecision" transform="matrix(1,0,0,1,-82,-33)" stroke="rgb(255,153,0)">
      <rect x="544" y="83.25" clip-path="url(#clipPath2)" width="86.5" rx="4" ry="4" height="82.75" stroke="none"/>
    </g>
    <g font-size="14px" stroke-linecap="butt" transform="matrix(1,0,0,1,-82,-33)" text-rendering="geometricPrecision" font-family="sans-serif" shape-rendering="geometricPrecision" stroke-miterlimit="1.45">
      <text x="550.2915" xml:space="preserve" y="129.4717" clip-path="url(#clipPath2)" stroke="none">Configurer</text>
      <rect x="544" y="83.25" clip-path="url(#clipPath2)" fill="none" width="86.5" rx="4" ry="4" height="82.75"/>
    </g>
    <g shape-rendering="geometricPrecision" text-rendering="geometricPrecision" transform="matrix(1,0,0,1,-82,-33)">
      <rect x="514" y="121.625" clip-path="url(#clipPath2)" width="141" rx="4" ry="4" height="6" stroke="none"/>
      <text stroke-linecap="butt" x="580.6826" y="128.7793" clip-path="url(#clipPath2)" font-family="sans-serif" stroke="none" xml:space="preserve" stroke-miterlimit="1.45">9</text>
      <rect stroke-linecap="butt" x="514" y="121.625" clip-path="url(#clipPath2)" fill="none" width="141" rx="4" ry="4" height="6" stroke-miterlimit="1.45"/>
      <rect x="254.125" y="197.875" clip-path="url(#clipPath2)" fill="rgb(153,204,0)" width="86.5" rx="4" ry="4" height="47.75" stroke="none"/>
    </g>
    <g font-size="14px" stroke-linecap="butt" transform="matrix(1,0,0,1,-82,-33)" text-rendering="geometricPrecision" font-family="sans-serif" shape-rendering="geometricPrecision" stroke-miterlimit="1.45">
      <text x="276.5493" xml:space="preserve" y="226.5967" clip-path="url(#clipPath2)" stroke="none">mgmt</text>
      <rect x="254.125" y="197.875" clip-path="url(#clipPath2)" fill="none" width="86.5" rx="4" ry="4" height="47.75"/>
    </g>
  </g>
</svg>
