<?xml version="1.0" encoding="UTF-8"?><svg xmlns="http://www.w3.org/2000/svg" xmlns:xlink="http://www.w3.org/1999/xlink" fill-opacity="1" color-rendering="auto" color-interpolation="auto" stroke="black" text-rendering="auto" stroke-linecap="square" width="873" stroke-miterlimit="10" stroke-opacity="1" shape-rendering="auto" fill="black" stroke-dasharray="none" font-weight="normal" stroke-width="1" height="331" font-family="'Dialog'" font-style="normal" stroke-linejoin="miter" font-size="12px" stroke-dashoffset="0" image-rendering="auto">
  <!--Generated by ySVG 2.5-->
  <defs id="genericDefs"/>
  <g>
    <defs id="defs1">
      <clipPath clipPathUnits="userSpaceOnUse" id="clipPath1">
        <path d="M0 0 L873 0 L873 331 L0 331 L0 0 Z"/>
      </clipPath>
      <clipPath clipPathUnits="userSpaceOnUse" id="clipPath2">
        <path d="M-12 34 L861 34 L861 365 L-12 365 L-12 34 Z"/>
      </clipPath>
    </defs>
    <g fill="white" text-rendering="geometricPrecision" shape-rendering="geometricPrecision" transform="translate(12,-34)" stroke="white">
      <rect x="-12" width="873" height="331" y="34" clip-path="url(#clipPath2)" stroke="none"/>
    </g>
    <g font-size="18px" stroke-linecap="butt" transform="matrix(1,0,0,1,12,-34)" text-rendering="geometricPrecision" font-family="sans-serif" shape-rendering="geometricPrecision" stroke-miterlimit="1.45">
      <text x="9" xml:space="preserve" y="71.708" clip-path="url(#clipPath2)" stroke="none">Role</text>
      <text x="9" xml:space="preserve" y="92.6611" clip-path="url(#clipPath2)" stroke="none">varnish</text>
      <rect fill="none" x="3" width="201" height="301" y="49" clip-path="url(#clipPath2)"/>
      <text x="330" xml:space="preserve" y="71.708" clip-path="url(#clipPath2)" stroke="none">Role</text>
      <text x="330" xml:space="preserve" y="92.6611" clip-path="url(#clipPath2)" stroke="none">apache</text>
      <rect fill="none" x="324" width="201" height="301" y="49" clip-path="url(#clipPath2)"/>
      <text x="651" xml:space="preserve" y="71.708" clip-path="url(#clipPath2)" stroke="none">Role</text>
      <text x="651" xml:space="preserve" y="92.6611" clip-path="url(#clipPath2)" stroke="none">jvm</text>
      <rect fill="none" x="645" width="201" height="301" y="49" clip-path="url(#clipPath2)"/>
    </g>
    <g fill="yellow" text-rendering="geometricPrecision" shape-rendering="geometricPrecision" transform="matrix(1,0,0,1,12,-34)" stroke="yellow">
      <path d="M22 118.7868 L30.7868 110 L43.2132 110 L52 118.7868 L52 131.2132 L43.2132 140 L30.7868 140 L22 131.2132 Z" clip-path="url(#clipPath2)" fill-rule="evenodd" stroke="none"/>
    </g>
    <g text-rendering="geometricPrecision" stroke-miterlimit="1.45" shape-rendering="geometricPrecision" font-family="sans-serif" transform="matrix(1,0,0,1,12,-34)" stroke-linecap="butt">
      <text x="58" xml:space="preserve" y="122.1699" clip-path="url(#clipPath2)" stroke="none">Apt</text>
      <text x="58" xml:space="preserve" y="136.1387" clip-path="url(#clipPath2)" stroke="none">varnish</text>
      <path fill="none" d="M22 118.7868 L30.7868 110 L43.2132 110 L52 118.7868 L52 131.2132 L43.2132 140 L30.7868 140 L22 131.2132 Z" fill-rule="evenodd" clip-path="url(#clipPath2)"/>
    </g>
    <g fill="yellow" text-rendering="geometricPrecision" shape-rendering="geometricPrecision" transform="matrix(1,0,0,1,12,-34)" stroke="yellow">
      <path d="M352 117.7868 L360.7868 109 L373.2132 109 L382 117.7868 L382 130.2132 L373.2132 139 L360.7868 139 L352 130.2132 Z" clip-path="url(#clipPath2)" fill-rule="evenodd" stroke="none"/>
    </g>
    <g text-rendering="geometricPrecision" stroke-miterlimit="1.45" shape-rendering="geometricPrecision" font-family="sans-serif" transform="matrix(1,0,0,1,12,-34)" stroke-linecap="butt">
      <text x="388" xml:space="preserve" y="121.1699" clip-path="url(#clipPath2)" stroke="none">Apt</text>
      <text x="388" xml:space="preserve" y="135.1387" clip-path="url(#clipPath2)" stroke="none">apache2</text>
      <path fill="none" d="M352 117.7868 L360.7868 109 L373.2132 109 L382 117.7868 L382 130.2132 L373.2132 139 L360.7868 139 L352 130.2132 Z" fill-rule="evenodd" clip-path="url(#clipPath2)"/>
    </g>
    <g fill="yellow" text-rendering="geometricPrecision" shape-rendering="geometricPrecision" transform="matrix(1,0,0,1,12,-34)" stroke="yellow">
      <path d="M672 116.7868 L680.7868 108 L693.2132 108 L702 116.7868 L702 129.2132 L693.2132 138 L680.7868 138 L672 129.2132 Z" clip-path="url(#clipPath2)" fill-rule="evenodd" stroke="none"/>
    </g>
    <g text-rendering="geometricPrecision" stroke-miterlimit="1.45" shape-rendering="geometricPrecision" font-family="sans-serif" transform="matrix(1,0,0,1,12,-34)" stroke-linecap="butt">
      <text x="708" xml:space="preserve" y="120.1699" clip-path="url(#clipPath2)" stroke="none">Apt</text>
      <text x="708" xml:space="preserve" y="134.1387" clip-path="url(#clipPath2)" stroke="none">open-jdk-8</text>
      <path fill="none" d="M672 116.7868 L680.7868 108 L693.2132 108 L702 116.7868 L702 129.2132 L693.2132 138 L680.7868 138 L672 129.2132 Z" fill-rule="evenodd" clip-path="url(#clipPath2)"/>
    </g>
    <g fill="aqua" text-rendering="geometricPrecision" shape-rendering="geometricPrecision" transform="matrix(1,0,0,1,12,-34)" stroke="aqua">
      <path d="M22 169.7868 L30.7868 161 L43.2132 161 L52 169.7868 L52 182.2132 L43.2132 191 L30.7868 191 L22 182.2132 Z" clip-path="url(#clipPath2)" fill-rule="evenodd" stroke="none"/>
    </g>
    <g text-rendering="geometricPrecision" stroke-miterlimit="1.45" shape-rendering="geometricPrecision" font-family="sans-serif" transform="matrix(1,0,0,1,12,-34)" stroke-linecap="butt">
      <text x="58" xml:space="preserve" y="173.1699" clip-path="url(#clipPath2)" stroke="none">File</text>
      <text x="58" xml:space="preserve" y="187.1387" clip-path="url(#clipPath2)" stroke="none">/etc/default/varnish</text>
      <path fill="none" d="M22 169.7868 L30.7868 161 L43.2132 161 L52 169.7868 L52 182.2132 L43.2132 191 L30.7868 191 L22 182.2132 Z" fill-rule="evenodd" clip-path="url(#clipPath2)"/>
    </g>
    <g fill="aqua" text-rendering="geometricPrecision" shape-rendering="geometricPrecision" transform="matrix(1,0,0,1,12,-34)" stroke="aqua">
      <path d="M22 220.7868 L30.7868 212 L43.2132 212 L52 220.7868 L52 233.2132 L43.2132 242 L30.7868 242 L22 233.2132 Z" clip-path="url(#clipPath2)" fill-rule="evenodd" stroke="none"/>
    </g>
    <g text-rendering="geometricPrecision" stroke-miterlimit="1.45" shape-rendering="geometricPrecision" font-family="sans-serif" transform="matrix(1,0,0,1,12,-34)" stroke-linecap="butt">
      <text x="58" xml:space="preserve" y="224.1699" clip-path="url(#clipPath2)" stroke="none">File</text>
      <text x="58" xml:space="preserve" y="238.1387" clip-path="url(#clipPath2)" stroke="none">default.vcl</text>
      <path fill="none" d="M22 220.7868 L30.7868 212 L43.2132 212 L52 220.7868 L52 233.2132 L43.2132 242 L30.7868 242 L22 233.2132 Z" fill-rule="evenodd" clip-path="url(#clipPath2)"/>
    </g>
    <g fill="aqua" text-rendering="geometricPrecision" shape-rendering="geometricPrecision" transform="matrix(1,0,0,1,12,-34)" stroke="aqua">
      <path d="M352 168.2868 L360.7868 159.5 L373.2132 159.5 L382 168.2868 L382 180.7132 L373.2132 189.5 L360.7868 189.5 L352 180.7132 Z" clip-path="url(#clipPath2)" fill-rule="evenodd" stroke="none"/>
    </g>
    <g text-rendering="geometricPrecision" stroke-miterlimit="1.45" shape-rendering="geometricPrecision" font-family="sans-serif" transform="matrix(1,0,0,1,12,-34)" stroke-linecap="butt">
      <text x="388" xml:space="preserve" y="171.6699" clip-path="url(#clipPath2)" stroke="none">File</text>
      <text x="388" xml:space="preserve" y="185.6387" clip-path="url(#clipPath2)" stroke="none">httpd.conf</text>
      <path fill="none" d="M352 168.2868 L360.7868 159.5 L373.2132 159.5 L382 168.2868 L382 180.7132 L373.2132 189.5 L360.7868 189.5 L352 180.7132 Z" fill-rule="evenodd" clip-path="url(#clipPath2)"/>
    </g>
    <g fill="aqua" text-rendering="geometricPrecision" shape-rendering="geometricPrecision" transform="matrix(1,0,0,1,12,-34)" stroke="aqua">
      <path d="M672 176.7868 L680.7868 168 L693.2132 168 L702 176.7868 L702 189.2132 L693.2132 198 L680.7868 198 L672 189.2132 Z" clip-path="url(#clipPath2)" fill-rule="evenodd" stroke="none"/>
    </g>
    <g text-rendering="geometricPrecision" stroke-miterlimit="1.45" shape-rendering="geometricPrecision" font-family="sans-serif" transform="matrix(1,0,0,1,12,-34)" stroke-linecap="butt">
      <text x="708" xml:space="preserve" y="180.1699" clip-path="url(#clipPath2)" stroke="none">File</text>
      <text x="708" xml:space="preserve" y="194.1387" clip-path="url(#clipPath2)" stroke="none">jce.zip</text>
      <path fill="none" d="M672 176.7868 L680.7868 168 L693.2132 168 L702 176.7868 L702 189.2132 L693.2132 198 L680.7868 198 L672 189.2132 Z" fill-rule="evenodd" clip-path="url(#clipPath2)"/>
    </g>
    <g fill="red" text-rendering="geometricPrecision" shape-rendering="geometricPrecision" transform="matrix(1,0,0,1,12,-34)" stroke="red">
      <path d="M672 236.7868 L680.7868 228 L693.2132 228 L702 236.7868 L702 249.2132 L693.2132 258 L680.7868 258 L672 249.2132 Z" clip-path="url(#clipPath2)" fill-rule="evenodd" stroke="none"/>
    </g>
    <g text-rendering="geometricPrecision" stroke-miterlimit="1.45" shape-rendering="geometricPrecision" font-family="sans-serif" transform="matrix(1,0,0,1,12,-34)" stroke-linecap="butt">
      <text x="708" xml:space="preserve" y="240.1699" clip-path="url(#clipPath2)" stroke="none">Unarchive</text>
      <text x="708" xml:space="preserve" y="254.1387" clip-path="url(#clipPath2)" stroke="none">jce.zip</text>
      <path fill="none" d="M672 236.7868 L680.7868 228 L693.2132 228 L702 236.7868 L702 249.2132 L693.2132 258 L680.7868 258 L672 249.2132 Z" fill-rule="evenodd" clip-path="url(#clipPath2)"/>
    </g>
    <g fill="rgb(153,204,0)" text-rendering="geometricPrecision" shape-rendering="geometricPrecision" transform="matrix(1,0,0,1,12,-34)" stroke="rgb(153,204,0)">
      <path d="M22 271.7868 L30.7868 263 L43.2132 263 L52 271.7868 L52 284.2132 L43.2132 293 L30.7868 293 L22 284.2132 Z" clip-path="url(#clipPath2)" fill-rule="evenodd" stroke="none"/>
    </g>
    <g text-rendering="geometricPrecision" stroke-miterlimit="1.45" shape-rendering="geometricPrecision" font-family="sans-serif" transform="matrix(1,0,0,1,12,-34)" stroke-linecap="butt">
      <text x="58" xml:space="preserve" y="275.1699" clip-path="url(#clipPath2)" stroke="none">Service</text>
      <text x="58" xml:space="preserve" y="289.1387" clip-path="url(#clipPath2)" stroke="none">varnish</text>
      <path fill="none" d="M22 271.7868 L30.7868 263 L43.2132 263 L52 271.7868 L52 284.2132 L43.2132 293 L30.7868 293 L22 284.2132 Z" fill-rule="evenodd" clip-path="url(#clipPath2)"/>
    </g>
    <g fill="rgb(153,204,0)" text-rendering="geometricPrecision" shape-rendering="geometricPrecision" transform="matrix(1,0,0,1,12,-34)" stroke="rgb(153,204,0)">
      <path d="M352 319.7868 L360.7868 311 L373.2132 311 L382 319.7868 L382 332.2132 L373.2132 341 L360.7868 341 L352 332.2132 Z" clip-path="url(#clipPath2)" fill-rule="evenodd" stroke="none"/>
    </g>
    <g text-rendering="geometricPrecision" stroke-miterlimit="1.45" shape-rendering="geometricPrecision" font-family="sans-serif" transform="matrix(1,0,0,1,12,-34)" stroke-linecap="butt">
      <text x="388" xml:space="preserve" y="323.1699" clip-path="url(#clipPath2)" stroke="none">Service</text>
      <text x="388" xml:space="preserve" y="337.1387" clip-path="url(#clipPath2)" stroke="none">apache2</text>
      <path fill="none" d="M352 319.7868 L360.7868 311 L373.2132 311 L382 319.7868 L382 332.2132 L373.2132 341 L360.7868 341 L352 332.2132 Z" fill-rule="evenodd" clip-path="url(#clipPath2)"/>
    </g>
    <g fill="rgb(255,153,204)" text-rendering="geometricPrecision" shape-rendering="geometricPrecision" transform="matrix(1,0,0,1,12,-34)" stroke="rgb(255,153,204)">
      <path d="M352 218.7868 L360.7868 210 L373.2132 210 L382 218.7868 L382 231.2132 L373.2132 240 L360.7868 240 L352 231.2132 Z" clip-path="url(#clipPath2)" fill-rule="evenodd" stroke="none"/>
    </g>
    <g text-rendering="geometricPrecision" stroke-miterlimit="1.45" shape-rendering="geometricPrecision" font-family="sans-serif" transform="matrix(1,0,0,1,12,-34)" stroke-linecap="butt">
      <text x="388" xml:space="preserve" y="222.1699" clip-path="url(#clipPath2)" stroke="none">vhost</text>
      <text x="388" xml:space="preserve" y="236.1387" clip-path="url(#clipPath2)" stroke="none">corporate</text>
      <path fill="none" d="M352 218.7868 L360.7868 210 L373.2132 210 L382 218.7868 L382 231.2132 L373.2132 240 L360.7868 240 L352 231.2132 Z" fill-rule="evenodd" clip-path="url(#clipPath2)"/>
    </g>
    <g fill="rgb(255,153,204)" text-rendering="geometricPrecision" shape-rendering="geometricPrecision" transform="matrix(1,0,0,1,12,-34)" stroke="rgb(255,153,204)">
      <path d="M352 269.2868 L360.7868 260.5 L373.2132 260.5 L382 269.2868 L382 281.7132 L373.2132 290.5 L360.7868 290.5 L352 281.7132 Z" clip-path="url(#clipPath2)" fill-rule="evenodd" stroke="none"/>
    </g>
    <g text-rendering="geometricPrecision" stroke-miterlimit="1.45" shape-rendering="geometricPrecision" font-family="sans-serif" transform="matrix(1,0,0,1,12,-34)" stroke-linecap="butt">
      <text x="388" xml:space="preserve" y="272.6699" clip-path="url(#clipPath2)" stroke="none">vhost</text>
      <text x="388" xml:space="preserve" y="286.6387" clip-path="url(#clipPath2)" stroke="none">ads</text>
      <path fill="none" d="M352 269.2868 L360.7868 260.5 L373.2132 260.5 L382 269.2868 L382 281.7132 L373.2132 290.5 L360.7868 290.5 L352 281.7132 Z" fill-rule="evenodd" clip-path="url(#clipPath2)"/>
    </g>
  </g>
</svg>
