<?xml version="1.0" encoding="UTF-8"?><svg xmlns="http://www.w3.org/2000/svg" xmlns:xlink="http://www.w3.org/1999/xlink" fill-opacity="1" color-rendering="auto" color-interpolation="auto" stroke="black" text-rendering="auto" stroke-linecap="square" width="873" stroke-miterlimit="10" stroke-opacity="1" shape-rendering="auto" fill="black" stroke-dasharray="none" font-weight="normal" stroke-width="1" height="331" font-family="'Dialog'" font-style="normal" stroke-linejoin="miter" font-size="12px" stroke-dashoffset="0" image-rendering="auto">
  <!--Generated by ySVG 2.5-->
  <defs id="genericDefs"/>
  <g>
    <defs id="defs1">
      <clipPath clipPathUnits="userSpaceOnUse" id="clipPath1">
        <path d="M0 0 L873 0 L873 331 L0 331 L0 0 Z"/>
      </clipPath>
      <clipPath clipPathUnits="userSpaceOnUse" id="clipPath2">
        <path d="M-12 34 L861 34 L861 365 L-12 365 L-12 34 Z"/>
      </clipPath>
    </defs>
    <g fill="white" text-rendering="geometricPrecision" shape-rendering="geometricPrecision" transform="translate(12,-34)" stroke="white">
      <rect x="-12" width="873" height="331" y="34" clip-path="url(#clipPath2)" stroke="none"/>
    </g>
    <g stroke-linecap="butt" transform="matrix(1,0,0,1,12,-34)" fill="red" text-rendering="geometricPrecision" shape-rendering="geometricPrecision" stroke="red" stroke-miterlimit="1.45">
      <path fill="none" d="M333.1711 123.0751 L337.088 127.3945 L337.088 127.3945 L74.2252 179.6246 L75.1996 184.5287 L338.0624 132.2987 L336.0944 137.7875 L352.2876 126.9233 L333.1711 123.0751 Z" clip-path="url(#clipPath2)"/>
    </g>
    <g stroke-linecap="butt" transform="matrix(1,0,0,1,12,-34)" fill="red" text-rendering="geometricPrecision" shape-rendering="geometricPrecision" stroke="red" stroke-miterlimit="1.45">
      <path fill="none" d="M653.9767 115.6032 L656.9923 120.5938 L656.9923 120.5938 L381.9921 121.4531 L382.0078 126.4531 L657.0079 125.5937 L657.0079 125.5937 L654.0236 130.6031 L654.0236 130.6031 L672.0001 123.0469 L653.9767 115.6032 Z" clip-path="url(#clipPath2)"/>
    </g>
    <g text-rendering="geometricPrecision" stroke-miterlimit="1.45" shape-rendering="geometricPrecision" transform="matrix(1,0,0,1,12,-34)" stroke-linecap="butt">
      <path fill="none" d="M42.369 139.0062 L51.7675 163.5238" clip-path="url(#clipPath2)"/>
    </g>
    <g text-rendering="geometricPrecision" stroke-miterlimit="1.45" shape-rendering="geometricPrecision" transform="matrix(1,0,0,1,12,-34)" stroke-linecap="butt">
      <path d="M54.631 170.9938 L55.0045 157.9992 L51.4095 162.5901 L45.667 161.5785 Z" clip-path="url(#clipPath2)" stroke="none"/>
    </g>
    <g stroke-linecap="butt" transform="matrix(1,0,0,1,12,-34)" fill="red" text-rendering="geometricPrecision" shape-rendering="geometricPrecision" stroke="red" stroke-miterlimit="1.45">
      <path fill="none" d="M44.7034 138.1114 L40.0347 139.901 L46.9276 157.8824 L46.9276 157.8824 L41.185 156.8709 L54.631 170.9938 L55.1912 151.5019 L51.5963 156.0928 L51.5963 156.0928 L44.7034 138.1114 Z" clip-path="url(#clipPath2)"/>
    </g>
    <g text-rendering="geometricPrecision" stroke-miterlimit="1.45" shape-rendering="geometricPrecision" transform="matrix(1,0,0,1,12,-34)" stroke-linecap="butt">
      <path fill="none" d="M37 140 L37 204" clip-path="url(#clipPath2)"/>
      <path d="M37 212 L42 200 L37 203 L32 200 Z" clip-path="url(#clipPath2)" stroke="none"/>
    </g>
    <g stroke-linecap="butt" transform="matrix(1,0,0,1,12,-34)" fill="red" text-rendering="geometricPrecision" shape-rendering="geometricPrecision" stroke="red" stroke-miterlimit="1.45">
      <path fill="none" d="M70.6264 223.1901 L51.9083 228.6565 L68.9699 238.0984 L68.9699 238.0984 L66.5404 232.7977 L66.5404 232.7977 L381.8156 267.8282 L382.3678 262.8588 L67.0926 227.8282 L67.0926 227.8282 L70.6264 223.1901 Z" clip-path="url(#clipPath2)"/>
    </g>
    <g text-rendering="geometricPrecision" stroke-miterlimit="1.45" shape-rendering="geometricPrecision" transform="matrix(1,0,0,1,12,-34)" stroke-linecap="butt">
      <path fill="none" d="M373.7082 137.4164 L386.7141 163.4282" clip-path="url(#clipPath2)"/>
      <path d="M390.2918 170.5836 L389.3973 157.6144 L386.2669 162.5338 L380.4531 162.0865 Z" clip-path="url(#clipPath2)" stroke="none"/>
    </g>
    <g stroke-linecap="butt" transform="matrix(1,0,0,1,12,-34)" fill="red" text-rendering="geometricPrecision" shape-rendering="geometricPrecision" stroke="red" stroke-miterlimit="1.45">
      <path fill="none" d="M671.8066 123.6411 L425.843 175.3783 L425.843 175.3783 L427.7495 169.8679 L411.6788 180.9124 L430.8372 184.5467 L426.8722 180.2712 L426.8722 180.2712 L672.8358 128.5341 L671.8066 123.6411 Z" clip-path="url(#clipPath2)"/>
    </g>
    <g text-rendering="geometricPrecision" stroke-miterlimit="1.45" shape-rendering="geometricPrecision" transform="matrix(1,0,0,1,12,-34)" stroke-linecap="butt">
      <path fill="none" d="M687 138 L687 160" clip-path="url(#clipPath2)"/>
      <path d="M687 168 L692 156 L687 159 L682 156 Z" clip-path="url(#clipPath2)" stroke="none"/>
    </g>
    <g stroke-linecap="butt" transform="matrix(1,0,0,1,12,-34)" fill="red" text-rendering="geometricPrecision" shape-rendering="geometricPrecision" stroke="red" stroke-miterlimit="1.45">
      <path fill="none" d="M653.3046 179.8582 L656.9298 184.4253 L656.9298 184.4253 L381.5471 220.5692 L382.1978 225.5267 L657.5804 189.3828 L655.2567 194.7306 L655.2567 194.7306 L672.1276 184.952 L653.3046 179.8582 Z" clip-path="url(#clipPath2)"/>
    </g>
    <g text-rendering="geometricPrecision" stroke-miterlimit="1.45" shape-rendering="geometricPrecision" transform="matrix(1,0,0,1,12,-34)" stroke-linecap="butt">
      <path fill="none" d="M687 198 L687 220" clip-path="url(#clipPath2)"/>
      <path d="M687 228 L692 216 L687 219 L682 216 Z" clip-path="url(#clipPath2)" stroke="none"/>
    </g>
    <g stroke-linecap="butt" transform="matrix(1,0,0,1,12,-34)" fill="red" text-rendering="geometricPrecision" shape-rendering="geometricPrecision" stroke="red" stroke-miterlimit="1.45">
      <path fill="none" d="M653.1653 242.3205 L657.1134 246.6115 L657.1134 246.6115 L381.1858 303.5216 L382.1958 308.4185 L658.1234 251.5084 L658.1234 251.5084 L656.1953 257.0113 L672.3092 246.03 L653.1653 242.3205 Z" clip-path="url(#clipPath2)"/>
    </g>
    <g text-rendering="geometricPrecision" stroke-miterlimit="1.45" shape-rendering="geometricPrecision" transform="matrix(1,0,0,1,12,-34)" stroke-linecap="butt">
      <path fill="none" d="M37 242 L37 288" clip-path="url(#clipPath2)"/>
      <path d="M37 296 L42 284 L37 287 L32 284 Z" clip-path="url(#clipPath2)" stroke="none"/>
      <path fill="none" d="M57.3064 199.7562 L41.1302 288.3739" clip-path="url(#clipPath2)"/>
      <path d="M39.6936 296.2438 L46.7672 285.3368 L41.3097 287.3901 L36.9297 283.541 Z" clip-path="url(#clipPath2)" stroke="none"/>
    </g>
    <g stroke-linecap="butt" transform="matrix(1,0,0,1,12,-34)" fill="red" text-rendering="geometricPrecision" shape-rendering="geometricPrecision" stroke="red" stroke-miterlimit="1.45">
      <path fill="none" d="M34.5 242 L34.5 281 L29.5 278 L37 296 L44.5 278 L39.5 281 L39.5 242 Z" clip-path="url(#clipPath2)"/>
    </g>
    <g text-rendering="geometricPrecision" stroke-miterlimit="1.45" shape-rendering="geometricPrecision" transform="matrix(1,0,0,1,12,-34)" stroke-linecap="butt">
      <path fill="none" d="M388.2814 279.206 L380.3685 290.2841" clip-path="url(#clipPath2)"/>
      <path d="M375.7186 296.794 L386.7621 289.9354 L380.9497 289.4704 L378.6247 284.123 Z" clip-path="url(#clipPath2)" stroke="none"/>
      <path fill="none" d="M367 240 L367 286" clip-path="url(#clipPath2)"/>
      <path d="M367 294 L372 282 L367 285 L362 282 Z" clip-path="url(#clipPath2)" stroke="none"/>
      <path fill="none" d="M393.4994 198.5858 L372.3676 286.6351" clip-path="url(#clipPath2)"/>
      <path d="M370.5006 294.4142 L378.163 283.9124 L372.601 285.6627 L368.4391 281.5787 Z" clip-path="url(#clipPath2)" stroke="none"/>
    </g>
    <g stroke-linecap="butt" transform="matrix(1,0,0,1,12,-34)" fill="red" text-rendering="geometricPrecision" shape-rendering="geometricPrecision" stroke="red" stroke-miterlimit="1.45">
      <path fill="none" d="M333.9551 301.7001 L336.9854 306.6819 L336.9854 306.6819 L51.9846 308.4091 L52.0149 313.4091 L337.0157 311.6818 L337.0157 311.6818 L334.0461 316.6999 L352.0003 309.0909 L333.9551 301.7001 Z" clip-path="url(#clipPath2)"/>
    </g>
    <g text-rendering="geometricPrecision" stroke-miterlimit="1.45" shape-rendering="geometricPrecision" transform="matrix(1,0,0,1,12,-34)" stroke-linecap="butt">
      <path fill="none" d="M367 139 L367 202" clip-path="url(#clipPath2)"/>
      <path d="M367 210 L372 198 L367 201 L362 198 Z" clip-path="url(#clipPath2)" stroke="none"/>
    </g>
    <g stroke-linecap="butt" transform="matrix(1,0,0,1,12,-34)" fill="red" text-rendering="geometricPrecision" shape-rendering="geometricPrecision" stroke="red" stroke-miterlimit="1.45">
      <path fill="none" d="M380.4341 193.9392 L375.8576 212.8945 L392.5396 202.7968 L386.7329 202.2654 L386.7329 202.2654 L390.1599 197.5817 L386.1248 194.6292 L382.6977 199.3128 L380.4341 193.9392 Z" clip-path="url(#clipPath2)"/>
    </g>
    <g text-rendering="geometricPrecision" stroke-miterlimit="1.45" shape-rendering="geometricPrecision" transform="matrix(1,0,0,1,12,-34)" stroke-linecap="butt">
      <path fill="none" d="M370.0798 138.6804 L392.2776 244.49" clip-path="url(#clipPath2)"/>
      <path d="M393.9202 252.3196 L396.3498 239.5486 L392.0723 243.5113 L386.5629 241.6019 Z" clip-path="url(#clipPath2)" stroke="none"/>
    </g>
    <g stroke-linecap="butt" transform="matrix(1,0,0,1,12,-34)" fill="red" text-rendering="geometricPrecision" shape-rendering="geometricPrecision" stroke="red" stroke-miterlimit="1.45">
      <path fill="none" d="M671.8967 184.772 L425.12 256.2521 L425.12 256.2521 L426.6104 250.6149 L411.4078 262.8267 L430.7837 265.0227 L426.5111 261.0547 L426.5111 261.0547 L673.2878 189.5746 L671.8967 184.772 Z" clip-path="url(#clipPath2)"/>
    </g>
    <g font-size="18px" stroke-linecap="butt" transform="matrix(1,0,0,1,12,-34)" text-rendering="geometricPrecision" font-family="sans-serif" shape-rendering="geometricPrecision" stroke-miterlimit="1.45">
      <text x="9" xml:space="preserve" y="71.708" clip-path="url(#clipPath2)" stroke="none">Class</text>
      <text x="9" xml:space="preserve" y="92.6611" clip-path="url(#clipPath2)" stroke="none">varnish</text>
      <rect fill="none" x="3" width="201" height="301" y="49" clip-path="url(#clipPath2)"/>
      <text x="330" xml:space="preserve" y="71.708" clip-path="url(#clipPath2)" stroke="none">Class</text>
      <text x="330" xml:space="preserve" y="92.6611" clip-path="url(#clipPath2)" stroke="none">apache</text>
      <rect fill="none" x="324" width="201" height="301" y="49" clip-path="url(#clipPath2)"/>
      <text x="651" xml:space="preserve" y="71.708" clip-path="url(#clipPath2)" stroke="none">Class</text>
      <text x="651" xml:space="preserve" y="92.6611" clip-path="url(#clipPath2)" stroke="none">jvm</text>
      <rect fill="none" x="645" width="201" height="301" y="49" clip-path="url(#clipPath2)"/>
    </g>
    <g fill="yellow" text-rendering="geometricPrecision" shape-rendering="geometricPrecision" transform="matrix(1,0,0,1,12,-34)" stroke="yellow">
      <circle r="15" clip-path="url(#clipPath2)" cx="37" cy="125" stroke="none"/>
    </g>
    <g text-rendering="geometricPrecision" stroke-miterlimit="1.45" shape-rendering="geometricPrecision" font-family="sans-serif" transform="matrix(1,0,0,1,12,-34)" stroke-linecap="butt">
      <text x="58" xml:space="preserve" y="122.1699" clip-path="url(#clipPath2)" stroke="none">Package</text>
      <text x="58" xml:space="preserve" y="136.1387" clip-path="url(#clipPath2)" stroke="none">varnish</text>
      <circle fill="none" r="15" clip-path="url(#clipPath2)" cx="37" cy="125"/>
    </g>
    <g fill="yellow" text-rendering="geometricPrecision" shape-rendering="geometricPrecision" transform="matrix(1,0,0,1,12,-34)" stroke="yellow">
      <circle r="15" clip-path="url(#clipPath2)" cx="367" cy="124" stroke="none"/>
    </g>
    <g text-rendering="geometricPrecision" stroke-miterlimit="1.45" shape-rendering="geometricPrecision" font-family="sans-serif" transform="matrix(1,0,0,1,12,-34)" stroke-linecap="butt">
      <text x="388" xml:space="preserve" y="121.1699" clip-path="url(#clipPath2)" stroke="none">Package</text>
      <text x="388" xml:space="preserve" y="135.1387" clip-path="url(#clipPath2)" stroke="none">apache2</text>
      <circle fill="none" r="15" clip-path="url(#clipPath2)" cx="367" cy="124"/>
    </g>
    <g fill="yellow" text-rendering="geometricPrecision" shape-rendering="geometricPrecision" transform="matrix(1,0,0,1,12,-34)" stroke="yellow">
      <circle r="15" clip-path="url(#clipPath2)" cx="687" cy="123" stroke="none"/>
    </g>
    <g text-rendering="geometricPrecision" stroke-miterlimit="1.45" shape-rendering="geometricPrecision" font-family="sans-serif" transform="matrix(1,0,0,1,12,-34)" stroke-linecap="butt">
      <text x="708" xml:space="preserve" y="120.1699" clip-path="url(#clipPath2)" stroke="none">Package</text>
      <text x="708" xml:space="preserve" y="134.1387" clip-path="url(#clipPath2)" stroke="none">open-jdk-8</text>
      <circle fill="none" r="15" clip-path="url(#clipPath2)" cx="687" cy="123"/>
    </g>
    <g fill="aqua" text-rendering="geometricPrecision" shape-rendering="geometricPrecision" transform="matrix(1,0,0,1,12,-34)" stroke="aqua">
      <circle r="15" clip-path="url(#clipPath2)" cx="60" cy="185" stroke="none"/>
    </g>
    <g text-rendering="geometricPrecision" stroke-miterlimit="1.45" shape-rendering="geometricPrecision" font-family="sans-serif" transform="matrix(1,0,0,1,12,-34)" stroke-linecap="butt">
      <text x="81" xml:space="preserve" y="182.1699" clip-path="url(#clipPath2)" stroke="none">File</text>
      <text x="81" xml:space="preserve" y="196.1387" clip-path="url(#clipPath2)" stroke="none">/etc/default/varnish</text>
      <circle fill="none" r="15" clip-path="url(#clipPath2)" cx="60" cy="185"/>
    </g>
    <g fill="aqua" text-rendering="geometricPrecision" shape-rendering="geometricPrecision" transform="matrix(1,0,0,1,12,-34)" stroke="aqua">
      <circle r="15" clip-path="url(#clipPath2)" cx="37" cy="227" stroke="none"/>
    </g>
    <g text-rendering="geometricPrecision" stroke-miterlimit="1.45" shape-rendering="geometricPrecision" font-family="sans-serif" transform="matrix(1,0,0,1,12,-34)" stroke-linecap="butt">
      <text x="58" xml:space="preserve" y="224.1699" clip-path="url(#clipPath2)" stroke="none">File</text>
      <text x="58" xml:space="preserve" y="238.1387" clip-path="url(#clipPath2)" stroke="none">default.vcl</text>
      <circle fill="none" r="15" clip-path="url(#clipPath2)" cx="37" cy="227"/>
    </g>
    <g fill="aqua" text-rendering="geometricPrecision" shape-rendering="geometricPrecision" transform="matrix(1,0,0,1,12,-34)" stroke="aqua">
      <circle r="15" clip-path="url(#clipPath2)" cx="397" cy="184" stroke="none"/>
    </g>
    <g text-rendering="geometricPrecision" stroke-miterlimit="1.45" shape-rendering="geometricPrecision" font-family="sans-serif" transform="matrix(1,0,0,1,12,-34)" stroke-linecap="butt">
      <text x="418" xml:space="preserve" y="181.1699" clip-path="url(#clipPath2)" stroke="none">File</text>
      <text x="418" xml:space="preserve" y="195.1387" clip-path="url(#clipPath2)" stroke="none">httpd.conf</text>
      <circle fill="none" r="15" clip-path="url(#clipPath2)" cx="397" cy="184"/>
    </g>
    <g fill="aqua" text-rendering="geometricPrecision" shape-rendering="geometricPrecision" transform="matrix(1,0,0,1,12,-34)" stroke="aqua">
      <circle r="15" clip-path="url(#clipPath2)" cx="687" cy="183" stroke="none"/>
    </g>
    <g text-rendering="geometricPrecision" stroke-miterlimit="1.45" shape-rendering="geometricPrecision" font-family="sans-serif" transform="matrix(1,0,0,1,12,-34)" stroke-linecap="butt">
      <text x="708" xml:space="preserve" y="180.1699" clip-path="url(#clipPath2)" stroke="none">File</text>
      <text x="708" xml:space="preserve" y="194.1387" clip-path="url(#clipPath2)" stroke="none">jce.zip</text>
      <circle fill="none" r="15" clip-path="url(#clipPath2)" cx="687" cy="183"/>
    </g>
    <g fill="red" text-rendering="geometricPrecision" shape-rendering="geometricPrecision" transform="matrix(1,0,0,1,12,-34)" stroke="red">
      <circle r="15" clip-path="url(#clipPath2)" cx="687" cy="243" stroke="none"/>
    </g>
    <g text-rendering="geometricPrecision" stroke-miterlimit="1.45" shape-rendering="geometricPrecision" font-family="sans-serif" transform="matrix(1,0,0,1,12,-34)" stroke-linecap="butt">
      <text x="708" xml:space="preserve" y="240.1699" clip-path="url(#clipPath2)" stroke="none">Exec</text>
      <text x="708" xml:space="preserve" y="254.1387" clip-path="url(#clipPath2)" stroke="none">unzip jce.zip</text>
      <circle fill="none" r="15" clip-path="url(#clipPath2)" cx="687" cy="243"/>
    </g>
    <g fill="rgb(153,204,0)" text-rendering="geometricPrecision" shape-rendering="geometricPrecision" transform="matrix(1,0,0,1,12,-34)" stroke="rgb(153,204,0)">
      <circle r="15" clip-path="url(#clipPath2)" cx="37" cy="311" stroke="none"/>
    </g>
    <g text-rendering="geometricPrecision" stroke-miterlimit="1.45" shape-rendering="geometricPrecision" font-family="sans-serif" transform="matrix(1,0,0,1,12,-34)" stroke-linecap="butt">
      <text x="58" xml:space="preserve" y="308.1699" clip-path="url(#clipPath2)" stroke="none">Service</text>
      <text x="58" xml:space="preserve" y="322.1387" clip-path="url(#clipPath2)" stroke="none">varnish</text>
      <circle fill="none" r="15" clip-path="url(#clipPath2)" cx="37" cy="311"/>
    </g>
    <g fill="rgb(153,204,0)" text-rendering="geometricPrecision" shape-rendering="geometricPrecision" transform="matrix(1,0,0,1,12,-34)" stroke="rgb(153,204,0)">
      <circle r="15" clip-path="url(#clipPath2)" cx="367" cy="309" stroke="none"/>
    </g>
    <g text-rendering="geometricPrecision" stroke-miterlimit="1.45" shape-rendering="geometricPrecision" font-family="sans-serif" transform="matrix(1,0,0,1,12,-34)" stroke-linecap="butt">
      <text x="388" xml:space="preserve" y="306.1699" clip-path="url(#clipPath2)" stroke="none">Service</text>
      <text x="388" xml:space="preserve" y="320.1387" clip-path="url(#clipPath2)" stroke="none">apache2</text>
      <circle fill="none" r="15" clip-path="url(#clipPath2)" cx="367" cy="309"/>
    </g>
    <g fill="rgb(255,153,204)" text-rendering="geometricPrecision" shape-rendering="geometricPrecision" transform="matrix(1,0,0,1,12,-34)" stroke="rgb(255,153,204)">
      <circle r="15" clip-path="url(#clipPath2)" cx="367" cy="225" stroke="none"/>
    </g>
    <g text-rendering="geometricPrecision" stroke-miterlimit="1.45" shape-rendering="geometricPrecision" font-family="sans-serif" transform="matrix(1,0,0,1,12,-34)" stroke-linecap="butt">
      <text x="388" xml:space="preserve" y="222.1699" clip-path="url(#clipPath2)" stroke="none">vhost</text>
      <text x="388" xml:space="preserve" y="236.1387" clip-path="url(#clipPath2)" stroke="none">corporate</text>
      <circle fill="none" r="15" clip-path="url(#clipPath2)" cx="367" cy="225"/>
    </g>
    <g fill="rgb(255,153,204)" text-rendering="geometricPrecision" shape-rendering="geometricPrecision" transform="matrix(1,0,0,1,12,-34)" stroke="rgb(255,153,204)">
      <circle r="15" clip-path="url(#clipPath2)" cx="397" cy="267" stroke="none"/>
    </g>
    <g text-rendering="geometricPrecision" stroke-miterlimit="1.45" shape-rendering="geometricPrecision" font-family="sans-serif" transform="matrix(1,0,0,1,12,-34)" stroke-linecap="butt">
      <text x="418" xml:space="preserve" y="264.1699" clip-path="url(#clipPath2)" stroke="none">vhost</text>
      <text x="418" xml:space="preserve" y="278.1387" clip-path="url(#clipPath2)" stroke="none">ads</text>
      <circle fill="none" r="15" clip-path="url(#clipPath2)" cx="397" cy="267"/>
    </g>
  </g>
</svg>
